<svg aria-hidden="true" style="position: absolute; width: 0; height: 0; overflow: hidden;" version="1.1" xmlns="http://www.w3.org/2000/svg" xmlns:xlink="http://www.w3.org/1999/xlink">
<defs>
<symbol id="icon-close_24px" viewBox="0 0 32 32">
<path d="M31.439 3.166l-3.166-3.166-12.554 12.552-12.552-12.552-3.166 3.166 12.552 12.552-12.552 12.554 3.166 3.166 12.552-12.554 12.554 12.554 3.166-3.166-12.554-12.554 12.554-12.552z"></path>
</symbol>
<symbol id="icon-menu_24px" viewBox="0 0 48 32">
<path d="M0 5.334v-5.334h48v5.334h-48zM0 18.666h48v-5.332h-48v5.332zM0 32h48v-5.334h-48v5.334z"></path>
</symbol>
<symbol id="icon-Vector-2-1" viewBox="0 0 42 32">
<path fill="#fff" style="fill: var(--color1, #fff); stroke: var(--color1, #fff)" stroke="#fff" stroke-linejoin="miter" stroke-linecap="butt" stroke-miterlimit="4" stroke-width="0.64" d="M6.262 15.206l-0.221-0.211-0.221 0.208-3.085 2.925 0.243 0.234 11.408 10.88 0.221-0.211 24.256-23.139-0.243-0.23-3.043-2.902-0.221 0.211-20.97 19.987-8.125-7.75z"></path>
</symbol>
<symbol id="icon-Vector-8" viewBox="0 0 42 32">
<path d="M6.262 15.206l-0.221-0.211-0.221 0.208-3.085 2.925 0.243 0.234 11.408 10.88 0.221-0.211 24.256-23.139-0.243-0.23-3.043-2.902-0.221 0.211-20.97 19.987-8.125-7.75z"></path>
</symbol>
<symbol id="icon-icon-check-1" viewBox="0 0 34 32">
<path d="M4.267 0h25.6c2.356 0 4.267 1.91 4.267 4.267v23.467c0 2.356-1.91 4.267-4.267 4.267h-25.6c-2.356 0-4.267-1.91-4.267-4.267v-23.467c0-2.356 1.91-4.267 4.267-4.267z"></path>
<path stroke="#fff" stroke-linejoin="miter" stroke-linecap="butt" stroke-miterlimit="4" stroke-width="0.4267" d="M8.442 16.538l-0.147-0.141-0.147 0.139-2.057 1.95 0.162 0.156 7.605 7.253 0.147-0.141 16.171-15.426-0.162-0.154-2.029-1.935-0.147 0.141-13.98 13.325-5.417-5.167z"></path>
</symbol>
<symbol id="icon-tele1" viewBox="0 0 32 32">
<path fill="#fff" style="fill: var(--color1, #fff)" d="M32 0l-32 18 10.227 3.787 15.773-14.787-11.997 16.187 0.009 0.003-0.012-0.003v8.813l5.735-6.691 7.267 2.691 4.999-28z"></path>
</symbol>
<symbol id="icon-telegram-1" viewBox="0 0 32 32">
<path d="M32 0l-32 18 10.227 3.787 15.773-14.787-11.997 16.187 0.009 0.003-0.012-0.003v8.813l5.735-6.691 7.267 2.691 4.999-28z"></path>
</symbol>
<symbol id="icon-telefon-1" viewBox="0 0 32 32">
<path d="M27.419 20.853l-4.201-0.48c-0.116-0.014-0.25-0.023-0.385-0.023-0.909 0-1.732 0.369-2.328 0.964l-3.045 3.045c-4.718-2.435-8.467-6.185-10.835-10.764l-0.065-0.139 3.063-3.056c0.596-0.596 0.964-1.419 0.964-2.328 0-0.136-0.008-0.27-0.024-0.401l0.002 0.016-0.48-4.169c-0.199-1.655-1.595-2.926-3.287-2.926-0.001 0-0.003 0-0.004 0h-2.861c-1.87-0.005-3.424 1.55-3.31 3.417 0.878 14.126 12.176 25.408 26.286 26.286 1.867 0.114 3.424-1.44 3.424-3.31v-2.862c0-0.005 0-0.010 0-0.016 0-1.681-1.266-3.067-2.897-3.256l-0.015-0.001z"></path>
</symbol>
<symbol id="icon-list-1" viewBox="0 0 43 32">
<path d="M37.333 0h-32c-2.2 0-3.981 1.8-3.981 4l-0.019 24c0 2.2 1.8 4 4 4h32c2.2 0 4-1.8 4-4v-24c0-2.2-1.8-4-4-4zM36.533 8.501l-14.139 8.837c-0.302 0.188-0.668 0.3-1.060 0.3s-0.758-0.112-1.069-0.305l0.009 0.005-14.141-8.84c-0.503-0.301-0.835-0.843-0.835-1.463 0-0.938 0.761-1.699 1.699-1.699 0.349 0 0.673 0.105 0.943 0.285l-0.006-0.004 13.4 8.381 13.4-8.381c0.264-0.176 0.588-0.282 0.937-0.282 0.938 0 1.699 0.761 1.699 1.699 0 0.62-0.332 1.162-0.828 1.459l-0.008 0.004z"></path>
</symbol>
<symbol id="icon-close-1" viewBox="0 0 32 32">
<path d="M32 3.223l-3.223-3.223-12.777 12.777-12.777-12.777-3.223 3.223 12.777 12.777-12.777 12.777 3.223 3.223 12.777-12.777 12.777 12.777 3.223-3.223-12.777-12.777 12.777-12.777z"></path>
</symbol>
<symbol id="icon-man-1" viewBox="0 0 32 32">
<path d="M16 16c2.946 0 5.333-2.388 5.333-5.333s-2.388-5.333-5.333-5.333v0c-2.946 0-5.333 2.388-5.333 5.333s2.388 5.333 5.333 5.333v0zM16 18.667c-3.561 0-10.667 1.787-10.667 5.333v1.333c0 0.732 0.599 1.333 1.333 1.333h18.667c0.732 0 1.333-0.601 1.333-1.333v-1.333c0-3.547-7.108-5.333-10.667-5.333z"></path>
</symbol>
<symbol id="icon-close-1" viewBox="0 0 32 32">
<path fill="#fff" style="fill: var(--color1, #fff)" d="M32 16c0 8.837-7.163 16-16 16s-16-7.163-16-16c0-8.837 7.163-16 16-16s16 7.163 16 16z"></path>
<path fill="none" stroke="#000" style="stroke: var(--color2, #000)" stroke-linejoin="miter" stroke-linecap="butt" stroke-miterlimit="4" stroke-width="1.0667" d="M31.467 16c0 8.542-6.925 15.467-15.467 15.467s-15.467-6.925-15.467-15.467c0-8.542 6.925-15.467 15.467-15.467s15.467 6.925 15.467 15.467z"></path>
<path fill="#000" style="fill: var(--color2, #000)" d="M22.4 10.782l-1.182-1.182-4.685 4.685-4.685-4.685-1.182 1.182 4.685 4.685-4.685 4.685 1.182 1.182 4.685-4.685 4.685 4.685 1.182-1.182-4.685-4.685 4.685-4.685z"></path>
</symbol>
<symbol id="icon-Object1-1" viewBox="0 0 32 32">
<path d="M16.145 15.628c-0.13-0.167-0.208-0.38-0.208-0.612 0-0.023 0.001-0.046 0.002-0.068l-0 0.003v-0.982c0-0.301 0.068-0.529 0.205-0.686s0.371-0.234 0.703-0.234c0.312 0 0.534 0.067 0.665 0.2 0.143 0.17 0.213 0.378 0.197 0.587v0.231h-0.558v-0.234c0.002-0.076-0.003-0.153-0.016-0.228-0.010-0.055-0.039-0.103-0.080-0.136l-0-0c-0.050-0.034-0.112-0.054-0.178-0.054-0.008 0-0.017 0-0.025 0.001l0.001-0c-0.007-0.001-0.016-0.001-0.024-0.001-0.070 0-0.136 0.021-0.19 0.057l0.001-0.001c-0.046 0.037-0.079 0.089-0.092 0.148l-0 0.002c-0.014 0.067-0.022 0.145-0.022 0.224 0 0.007 0 0.013 0 0.020v-0.001 1.191c-0.009 0.115 0.016 0.23 0.072 0.334 0.029 0.036 0.067 0.064 0.11 0.080l0.002 0.001c0.033 0.013 0.071 0.021 0.11 0.021 0.012 0 0.024-0.001 0.035-0.002l-0.001 0c0.007 0.001 0.015 0.001 0.023 0.001 0.065 0 0.125-0.020 0.175-0.055l-0.001 0.001c0.043-0.036 0.073-0.086 0.083-0.143l0-0.001c0.013-0.079 0.019-0.159 0.017-0.239v-0.242h0.559v0.221c0.001 0.017 0.002 0.038 0.002 0.058 0 0.212-0.073 0.407-0.196 0.561l0.001-0.002c-0.128 0.146-0.347 0.219-0.669 0.219s-0.564-0.078-0.702-0.24zM18.47 15.638c-0.141-0.153-0.212-0.376-0.212-0.67v-1.033c0-0.292 0.070-0.512 0.212-0.662s0.377-0.224 0.708-0.224c0.328 0 0.563 0.075 0.704 0.224 0.141 0.15 0.213 0.37 0.213 0.662v1.032c0 0.292-0.072 0.515-0.215 0.669s-0.377 0.23-0.702 0.23-0.565-0.078-0.708-0.229zM19.438 15.391c0.051-0.095 0.074-0.2 0.067-0.305v-1.264c0.001-0.010 0.001-0.022 0.001-0.034 0-0.097-0.025-0.189-0.068-0.268l0.001 0.003c-0.030-0.037-0.068-0.065-0.112-0.081l-0.002-0.001c-0.032-0.013-0.070-0.020-0.109-0.020-0.013 0-0.027 0.001-0.040 0.002l0.002-0c-0.011-0.001-0.024-0.002-0.038-0.002-0.040 0-0.077 0.007-0.112 0.021l0.002-0.001c-0.046 0.017-0.085 0.046-0.114 0.082l-0 0.001c-0.051 0.093-0.074 0.196-0.067 0.3v1.27c-0.007 0.105 0.016 0.21 0.067 0.306 0.032 0.032 0.073 0.058 0.118 0.076 0.043 0.017 0.092 0.027 0.143 0.027s0.101-0.010 0.146-0.028l-0.003 0.001c0.045-0.018 0.085-0.044 0.118-0.076v-0.006zM20.767 13.081h0.601l0.452 1.905 0.463-1.905h0.585l0.059 2.749h-0.433l-0.046-1.911-0.446 1.911h-0.347l-0.462-1.918-0.043 1.918h-0.437l0.054-2.749zM23.602 13.081h0.937c0.54 0 0.81 0.26 0.81 0.781 0 0.498-0.284 0.748-0.852 0.747h-0.319v1.222h-0.578l0.003-2.75zM24.402 14.255c0.057 0.006 0.115 0.002 0.17-0.013s0.106-0.040 0.148-0.074c0.066-0.093 0.096-0.202 0.083-0.31 0-0.009 0.001-0.020 0.001-0.030 0-0.078-0.010-0.153-0.030-0.225l0.001 0.006c-0.009-0.029-0.024-0.055-0.043-0.076l0 0c-0.020-0.023-0.044-0.041-0.071-0.055l-0.001-0.001c-0.067-0.028-0.146-0.045-0.228-0.045-0.011 0-0.021 0-0.032 0.001l0.001-0h-0.224v0.822h0.225zM26.182 13.081h0.621l0.637 2.749h-0.539l-0.126-0.634h-0.554l-0.129 0.634h-0.547l0.637-2.749zM26.713 14.878l-0.216-1.154-0.216 1.154h0.432zM27.955 13.081h0.405l0.774 1.568v-1.568h0.48v2.749h-0.385l-0.78-1.637v1.637h-0.496l0.001-2.749zM30.738 14.781l-0.644-1.697h0.543l0.393 1.090 0.369-1.090h0.531l-0.636 1.697v1.048h-0.555v-1.049zM17.038 17.032v0.144h-0.472v1.117h-0.198v-1.117h-0.474v-0.144h1.144zM18.517 18.293h-0.153c-0.001 0-0.003 0-0.004 0-0.014 0-0.028-0.005-0.039-0.012l0 0c-0.011-0.007-0.020-0.017-0.025-0.029l-0-0-0.137-0.3h-0.655l-0.136 0.3c-0.004 0.013-0.012 0.025-0.021 0.034l-0 0c-0.011 0.008-0.025 0.012-0.039 0.012-0.001 0-0.002-0-0.004-0h-0.152l0.578-1.261h0.201l0.586 1.256zM17.559 17.825h0.546l-0.232-0.513c-0.015-0.032-0.029-0.072-0.041-0.112l-0.002-0.006c-0.008 0.024-0.015 0.047-0.022 0.067l-0.021 0.053-0.229 0.512zM19.514 18.169c0.036 0.002 0.073 0.002 0.109 0 0.031-0.003 0.062-0.008 0.092-0.015 0.028-0.006 0.056-0.014 0.083-0.023 0.026-0.009 0.051-0.020 0.077-0.031v-0.284h-0.231c-0.001 0-0.001 0-0.002 0-0.011 0-0.021-0.004-0.029-0.010l0 0c-0.004-0.003-0.007-0.006-0.009-0.010l-0-0c-0.002-0.003-0.003-0.007-0.003-0.011 0-0 0-0.001 0-0.001v0-0.097h0.449v0.483c-0.070 0.044-0.151 0.079-0.238 0.101l-0.006 0.001c-0.048 0.012-0.096 0.021-0.145 0.026-0.056 0.005-0.112 0.008-0.169 0.008-0.002 0-0.005 0-0.007 0-0.102 0-0.199-0.017-0.29-0.049l0.006 0.002c-0.089-0.031-0.166-0.076-0.232-0.133l0.001 0.001c-0.062-0.055-0.112-0.121-0.148-0.196l-0.002-0.004c-0.034-0.075-0.053-0.162-0.053-0.253 0-0.003 0-0.006 0-0.009v0c-0-0.002-0-0.005-0-0.008 0-0.092 0.019-0.18 0.054-0.26l-0.002 0.004c0.033-0.075 0.084-0.143 0.149-0.2 0.066-0.057 0.145-0.101 0.232-0.131 0.099-0.032 0.204-0.048 0.31-0.047 0.054 0 0.108 0.003 0.161 0.011 0.047 0.007 0.093 0.017 0.138 0.032 0.041 0.013 0.079 0.030 0.116 0.050 0.035 0.020 0.069 0.042 0.101 0.066l-0.055 0.078c-0.005 0.007-0.011 0.013-0.018 0.017l-0 0c-0.008 0.004-0.017 0.007-0.027 0.007h-0c-0.013-0-0.025-0.004-0.036-0.010l0 0c-0.023-0.011-0.042-0.021-0.060-0.032l0.003 0.002c-0.022-0.012-0.047-0.024-0.074-0.033l-0.004-0.001c-0.029-0.011-0.065-0.020-0.102-0.027l-0.005-0.001c-0.042-0.007-0.090-0.011-0.139-0.011-0.003 0-0.005 0-0.008 0h0c-0.002-0-0.005-0-0.007-0-0.077 0-0.152 0.013-0.221 0.037l0.005-0.001c-0.064 0.022-0.123 0.056-0.17 0.1-0.046 0.043-0.082 0.095-0.106 0.154l-0.001 0.003c-0.025 0.062-0.039 0.135-0.039 0.21s0.014 0.148 0.040 0.214l-0.001-0.004c0.025 0.059 0.065 0.113 0.116 0.159 0.047 0.043 0.105 0.077 0.169 0.1 0.074 0.022 0.151 0.030 0.229 0.025zM21.357 18.149h0.631v0.144h-0.824v-1.261h0.197l-0.004 1.117zM22.645 18.293h-0.197v-1.261h0.197v1.261zM23.381 17.038c0.012 0.006 0.022 0.013 0.030 0.023l0 0 0.845 0.95c-0.001-0.007-0.001-0.015-0.001-0.022s0-0.016 0.001-0.023l-0 0.001v-0.94h0.172v1.266h-0.099c-0.002 0-0.004 0-0.006 0-0.013 0-0.026-0.003-0.037-0.008l0.001 0c-0.012-0.006-0.022-0.014-0.031-0.024l-0-0-0.844-0.95v0.98h-0.165v-1.261h0.103c0.011 0 0.022 0.002 0.032 0.006zM25.885 17.032v0.139h-0.701v0.416h0.568v0.134h-0.568v0.431h0.701v0.139h-0.904v-1.258h0.904zM5.162 9.245l8.781 2.152v7.543l-8.781-2.151v-7.544zM4.598 8.601v8.554l9.906 2.429v-8.553l-9.906-2.43z"></path>
<path d="M9.908 23.555l-9.908-2.431v-8.553l9.908 2.43v8.554z"></path>
<path d="M4.763 9.148l8.667 2.126-3.685 3.183-8.668-2.127 3.687-3.182zM4.598 8.602l-4.598 3.969 9.908 2.431 4.597-3.97-9.906-2.43zM10.465 23.074l4.040-3.489-4.040-0.991v4.48z"></path>
</symbol>
<symbol id="icon-group1-1" viewBox="0 0 32 32">
<path d="M2.416 23.738c0.124 0.14 0.189 0.316 0.186 0.496 0.001 0.011 0.001 0.024 0.001 0.038 0 0.111-0.025 0.216-0.069 0.31l0.002-0.004c-0.053 0.113-0.129 0.208-0.221 0.282l-0.002 0.001c-0.21 0.145-0.471 0.231-0.751 0.231-0.031 0-0.061-0.001-0.092-0.003l0.004 0h-1.475v-3.144h1.445c0.026-0.002 0.055-0.003 0.085-0.003 0.266 0 0.513 0.079 0.72 0.214l-0.005-0.003c0.093 0.072 0.168 0.163 0.216 0.264 0.049 0.103 0.071 0.213 0.064 0.325 0.008 0.173-0.051 0.344-0.168 0.48-0.112 0.125-0.267 0.211-0.44 0.246 0.196 0.032 0.372 0.128 0.498 0.269zM0.686 23.264h0.618c0.14 0.009 0.279-0.028 0.393-0.105 0.045-0.037 0.081-0.084 0.104-0.137l0.001-0.002c0.018-0.041 0.029-0.088 0.029-0.138 0-0.011-0-0.021-0.001-0.031l0 0.001c0.001-0.008 0.001-0.017 0.001-0.026 0-0.051-0.011-0.099-0.030-0.143l0.001 0.002c-0.024-0.056-0.059-0.102-0.103-0.14l-0-0c-0.1-0.068-0.223-0.108-0.355-0.108-0.017 0-0.034 0.001-0.051 0.002l0.002-0h-0.608v0.825zM1.757 24.47c0.048-0.038 0.087-0.087 0.113-0.142l0.001-0.002c0.021-0.044 0.033-0.096 0.033-0.15 0-0.009-0-0.017-0.001-0.026l0 0.001c0-0.007 0.001-0.015 0.001-0.023 0-0.056-0.013-0.109-0.035-0.157l0.001 0.002c-0.028-0.058-0.067-0.106-0.115-0.144l-0.001-0.001c-0.106-0.072-0.237-0.115-0.378-0.115-0.014 0-0.029 0-0.043 0.001l0.002-0h-0.648v0.865h0.656c0.147 0.008 0.294-0.030 0.414-0.109zM5.369 25.091l-0.803-1.229h-0.302v1.229h-0.691v-3.145h1.309c0.028-0.002 0.060-0.003 0.093-0.003 0.308 0 0.592 0.102 0.821 0.273l-0.004-0.003c0.183 0.171 0.294 0.396 0.311 0.634 0.001 0.020 0.002 0.043 0.002 0.066 0 0.229-0.082 0.439-0.217 0.603l0.001-0.002c-0.162 0.167-0.377 0.282-0.618 0.319l-0.006 0.001 0.856 1.257h-0.752zM4.264 23.433h0.565c0.393 0 0.589-0.158 0.589-0.476 0-0.008 0.001-0.016 0.001-0.025 0-0.060-0.012-0.116-0.034-0.168l0.001 0.003c-0.027-0.064-0.065-0.118-0.112-0.163l-0-0c-0.107-0.081-0.243-0.13-0.39-0.13-0.019 0-0.038 0.001-0.057 0.002l0.002-0h-0.572l0.007 0.957zM9.148 24.457h-1.378l-0.243 0.633h-0.725l1.265-3.11h0.784l1.26 3.11h-0.724l-0.238-0.633zM8.964 23.981l-0.503-1.327-0.503 1.327h1.007zM13.878 25.091h-0.686l-1.539-2.138v2.138h-0.685v-3.145h0.685l1.539 2.151v-2.151h0.686v3.145zM17.795 24.338c-0.142 0.237-0.358 0.431-0.621 0.555-0.267 0.126-0.579 0.199-0.909 0.199-0.020 0-0.039-0-0.059-0.001l0.003 0h-1.221v-3.145h1.222c0.017-0 0.037-0.001 0.057-0.001 0.329 0 0.641 0.071 0.922 0.199l-0.014-0.006c0.263 0.122 0.479 0.313 0.621 0.549 0.141 0.256 0.215 0.538 0.215 0.825s-0.074 0.569-0.215 0.825zM17.009 24.263c0.186-0.195 0.301-0.459 0.303-0.75v-0c0-0.275-0.108-0.541-0.303-0.75-0.213-0.168-0.485-0.27-0.781-0.27-0.028 0-0.055 0.001-0.082 0.003l0.004-0h-0.476v2.036h0.476c0.024 0.002 0.051 0.002 0.079 0.002 0.296 0 0.568-0.102 0.783-0.272l-0.003 0.002zM9.578 4.453s8.857 3.062 8.67 7.493v7.494s-8.851-3.063-8.667-7.494l-0.003-7.493zM26.138 17.685c1.673-1.054 3.608-1.707 5.628-1.899v-2.347c-2.327 0.822-4.302 2.311-5.628 4.245z"></path>
<path d="M25.134 18.392c1.369-2.524 3.742-4.472 6.633-5.444v-6.76s-12.615 4.362-12.348 10.671v10.67s0.562-0.195 1.447-0.561c0-0.341 0-0.685 0.041-1.031 0.261-2.929 1.781-5.643 4.228-7.546z"></path>
<path d="M23.934 22.356c0.066-0.74 0.214-1.472 0.441-2.185-1.524 1.643-2.446 3.683-2.638 5.831-0.019 0.203-0.029 0.405-0.034 0.615 1.052-0.46 1.849-0.852 2.629-1.27l-0.203 0.1c-0.224-1.016-0.29-2.057-0.196-3.090zM24.436 22.394c-0.025 0.259-0.039 0.561-0.039 0.866 0 0.684 0.071 1.351 0.206 1.995l-0.011-0.063c3.446-1.889 7.319-4.806 7.17-8.332v-0.307c-2.462 0.252-4.766 1.238-6.557 2.805-0.395 0.888-0.668 1.918-0.765 2.998l-0.003 0.038z"></path>
</symbol>
<symbol id="icon-Object-1" viewBox="0 0 32 32">
<path d="M5.266 30.294c0.011 0 0.023 0.003 0.033 0.007s0.020 0.010 0.028 0.017l-0-0 0.155 0.148c-0.121 0.12-0.269 0.216-0.437 0.282-0.172 0.064-0.371 0.101-0.578 0.101-0.014 0-0.028-0-0.042-0.001l0.002 0c-0.199 0.004-0.397-0.028-0.581-0.095-0.17-0.062-0.316-0.152-0.439-0.267l0.001 0.001c-0.12-0.113-0.216-0.25-0.281-0.403l-0.003-0.008c-0.063-0.151-0.099-0.327-0.099-0.511 0-0.006 0-0.012 0-0.017v0.001c-0-0.008-0-0.018-0-0.027 0-0.362 0.157-0.688 0.407-0.912l0.001-0.001c0.132-0.116 0.291-0.207 0.465-0.268 0.191-0.064 0.395-0.096 0.599-0.094 0.011-0 0.024-0 0.037-0 0.186 0 0.364 0.031 0.53 0.089l-0.011-0.003c0.154 0.058 0.295 0.139 0.417 0.238l-0.13 0.158c-0.009 0.011-0.020 0.021-0.033 0.028l-0.001 0c-0.013 0.008-0.029 0.012-0.045 0.012-0.002 0-0.005-0-0.007-0l0 0c-0.021-0.001-0.041-0.007-0.058-0.017l0.001 0-0.069-0.043-0.097-0.054c-0.089-0.043-0.191-0.076-0.3-0.093l-0.006-0.001c-0.064-0.011-0.139-0.017-0.214-0.017-0.006 0-0.012 0-0.018 0h0.001c-0.004-0-0.009-0-0.014-0-0.149 0-0.292 0.026-0.425 0.074l0.009-0.003c-0.131 0.046-0.243 0.114-0.339 0.2l0.001-0.001c-0.097 0.091-0.171 0.199-0.219 0.316-0.050 0.119-0.079 0.258-0.079 0.403 0 0.005 0 0.010 0 0.015v-0.001c-0 0.005-0 0.011-0 0.017 0 0.147 0.029 0.287 0.082 0.414l-0.003-0.007c0.048 0.117 0.121 0.223 0.215 0.315 0.089 0.085 0.199 0.153 0.322 0.196 0.127 0.046 0.262 0.068 0.399 0.068 0.079 0.001 0.159-0.004 0.237-0.014 0.197-0.020 0.373-0.099 0.513-0.219l-0.001 0.001c0.020-0.016 0.045-0.026 0.073-0.027h0zM9.745 29.549c0 0.005 0 0.010 0 0.016 0 0.184-0.039 0.358-0.108 0.517l0.003-0.008c-0.069 0.161-0.168 0.296-0.29 0.406l-0.001 0.001c-0.129 0.115-0.281 0.205-0.449 0.264l-0.009 0.003c-0.176 0.060-0.379 0.094-0.589 0.094s-0.414-0.035-0.603-0.098l0.013 0.004c-0.176-0.063-0.327-0.154-0.456-0.269l0.001 0.001c-0.124-0.112-0.224-0.249-0.292-0.403l-0.003-0.008c-0.066-0.155-0.105-0.335-0.105-0.524s0.038-0.369 0.108-0.533l-0.003 0.009c0.066-0.154 0.166-0.294 0.295-0.412 0.129-0.113 0.284-0.201 0.455-0.258 0.176-0.061 0.379-0.096 0.59-0.096s0.414 0.035 0.603 0.1l-0.013-0.004c0.172 0.060 0.328 0.151 0.457 0.267 0.128 0.117 0.228 0.256 0.293 0.406 0.072 0.169 0.107 0.348 0.105 0.528zM9.338 29.549c0-0.007 0-0.014 0-0.022 0-0.144-0.027-0.281-0.077-0.407l0.003 0.008c-0.094-0.243-0.287-0.429-0.529-0.512l-0.006-0.002c-0.128-0.044-0.275-0.069-0.428-0.069s-0.301 0.025-0.438 0.072l0.010-0.003c-0.127 0.045-0.237 0.113-0.328 0.2l0-0c-0.091 0.086-0.162 0.191-0.208 0.309l-0.002 0.006c-0.047 0.125-0.074 0.27-0.074 0.421s0.027 0.296 0.077 0.43l-0.003-0.009c0.094 0.243 0.289 0.429 0.532 0.51l0.006 0.002c0.276 0.090 0.58 0.090 0.857 0 0.124-0.043 0.236-0.111 0.327-0.197 0.093-0.092 0.164-0.199 0.208-0.315 0.052-0.135 0.077-0.278 0.074-0.421zM12.801 29.991l0.041 0.094c0.016-0.033 0.029-0.064 0.045-0.094 0.017-0.037 0.034-0.067 0.053-0.096l-0.002 0.004 0.991-1.565c0.020-0.027 0.037-0.044 0.057-0.049s0.044-0.009 0.068-0.009c0.005 0 0.009 0 0.014 0l-0.001-0h0.293v2.546h-0.347v-1.951c-0.001-0.013-0.001-0.029-0.001-0.044s0.001-0.031 0.002-0.046l-0 0.002-0.998 1.587c-0.014 0.025-0.034 0.044-0.058 0.057l-0.001 0c-0.024 0.013-0.053 0.021-0.084 0.021-0.001 0-0.001 0-0.002 0h-0.056c-0.001 0-0.001 0-0.002 0-0.031 0-0.059-0.008-0.084-0.022l0.001 0c-0.025-0.013-0.044-0.033-0.057-0.057l-0-0.001-1.026-1.597v2.043h-0.335v-2.54h0.292c0.004-0 0.009-0 0.014-0 0.024 0 0.048 0.003 0.070 0.009l-0.002-0c0.024 0.011 0.043 0.028 0.054 0.049l1.012 1.567c0.018 0.026 0.035 0.056 0.049 0.088l0.001 0.003zM16.529 29.865v0.953h-0.387v-2.541h0.865c0.164-0.003 0.326 0.016 0.483 0.055 0.125 0.031 0.242 0.085 0.341 0.159 0.083 0.066 0.148 0.149 0.192 0.245l0.002 0.004c0.046 0.104 0.068 0.215 0.066 0.326 0 0.005 0 0.010 0 0.016 0 0.23-0.11 0.434-0.279 0.563l-0.002 0.001c-0.1 0.076-0.217 0.134-0.343 0.168-0.131 0.038-0.281 0.059-0.436 0.059-0.011 0-0.022-0-0.032-0l-0.468-0.007zM16.529 29.591h0.469c0.102 0.001 0.203-0.012 0.301-0.038 0.083-0.024 0.155-0.062 0.218-0.111l-0.002 0.001c0.109-0.090 0.178-0.225 0.178-0.377 0-0.002 0-0.004-0-0.006v0c0.001-0.008 0.001-0.018 0.001-0.027 0-0.065-0.014-0.127-0.040-0.182l0.001 0.003c-0.033-0.069-0.078-0.127-0.134-0.173l-0.001-0.001c-0.13-0.087-0.289-0.139-0.461-0.139-0.022 0-0.043 0.001-0.064 0.002l0.003-0h-0.469v1.047zM21.741 30.821h-0.306c-0.002 0-0.004 0-0.006 0-0.030 0-0.057-0.009-0.080-0.024l0.001 0c-0.022-0.015-0.039-0.035-0.051-0.058l-0-0.001-0.263-0.614h-1.325l-0.273 0.614c-0.024 0.049-0.074 0.083-0.131 0.083-0.001 0-0.003-0-0.004-0h-0.307l1.163-2.546h0.403l1.179 2.546zM19.821 29.876h1.094l-0.461-1.036c-0.036-0.078-0.064-0.158-0.087-0.239l-0.045 0.133c-0.014 0.041-0.028 0.078-0.043 0.108l-0.457 1.034zM23.416 28.288c0.023 0.011 0.043 0.026 0.058 0.045l1.697 1.919v-1.976h0.347v2.546h-0.193c-0.001 0-0.003 0-0.004 0-0.027 0-0.053-0.006-0.076-0.016l0.001 0c-0.024-0.012-0.045-0.028-0.062-0.047l-0-0-1.695-1.917c0.001 0.013 0.001 0.028 0.001 0.044s-0 0.031-0.002 0.046l0-0.002v1.892h-0.347v-2.546h0.206c0.023 0 0.048 0.004 0.070 0.012zM28.375 29.809v1.011h-0.388v-1.010l-1.072-1.533h0.347c0.003-0 0.006-0 0.008-0 0.028 0 0.054 0.008 0.075 0.022l-0.001-0c0.021 0.017 0.039 0.036 0.053 0.058l0.671 0.989c0.027 0.043 0.050 0.081 0.070 0.118s0.036 0.073 0.049 0.107l0.050-0.11c0.019-0.040 0.041-0.078 0.066-0.116l0.661-0.996c0.014-0.021 0.031-0.038 0.049-0.054l0-0c0.021-0.016 0.048-0.025 0.077-0.025 0.003 0 0.005 0 0.008 0l-0-0h0.351l-1.074 1.54zM12.609 24.004c0.169 0.018 0.339 0.033 0.512 0.047 2.616-1.017 4.829-2.681 6.363-4.784s2.319-4.553 2.259-7.043l-2.884-2.505c0.587 2.65 0.313 5.39-0.791 7.913s-2.994 4.729-5.459 6.372z"></path>
<path d="M11.58 23.888l0.078 0.014c2.634-1.638 4.641-3.923 5.764-6.562s1.308-5.51 0.533-8.242l-4.107-3.568c1.66 2.933 2.33 6.215 1.927 9.465-0.401 3.25-1.856 6.333-4.196 8.892zM25.506 15.165c-0.698 2.736-2.392 5.202-4.832 7.035-0.666 0.507-1.418 0.982-2.209 1.391l-0.086 0.040c1.987-0.507 3.812-1.404 5.337-2.621s2.707-2.723 3.456-4.4l-1.665-1.446z"></path>
<path d="M24.853 14.763l-2.371-2.060c-0.046 2.349-0.814 4.644-2.226 6.647s-3.416 3.642-5.803 4.745h0.011c0.532 0 1.063-0.028 1.591-0.082 2.231-0.791 4.202-2.050 5.737-3.664s2.586-3.533 3.060-5.586zM11.922 4.025l-2.829-2.46c-2.529 0.849-4.703 2.342-6.24 4.282s-2.362 4.24-2.37 6.595c0.009 2.603 1.018 5.129 2.866 7.177 1.847 2.048 4.428 3.504 7.334 4.134 2.594-2.746 4.113-6.14 4.336-9.687s-0.863-7.065-3.098-10.041zM31.388 14.384c-0.010-3.088-1.427-6.047-3.94-8.23s-5.919-3.414-9.473-3.423c-0.008 0-0.017-0-0.026-0-1.709 0-3.351 0.285-4.882 0.809l0.106-0.032 17.319 15.047c0.564-1.226 0.894-2.659 0.896-4.17v-0.001z"></path>
</symbol>
<symbol id="icon-Union2-1" viewBox="0 0 32 32">
<path d="M13.691 4.348h-0.11c-0.168-0.010-0.336-0.014-0.504-0.018h-0.364c-0.318 0-0.642 0.008-0.963 0.024-0.011-0.001-0.024-0.001-0.036-0.001s-0.025 0-0.038 0.001l0.002-0c-3.089 0.18-5.956 0.953-8.549 2.205l0.135-0.059-0.346 0.166v17.714l0.81-0.275c0.71-0.244 1.467-0.464 2.25-0.667 1.935-0.518 4.162-0.829 6.457-0.86l0.019-0v2.327c-0.29 0.002-0.57 0.010-0.852 0.024h-0.067c-1.819 0.102-3.522 0.375-5.163 0.805l0.18-0.040c-2.255 0.573-4.23 1.366-6.066 2.38l0.13-0.066v-22.718c1.793-1.066 3.867-1.934 6.064-2.497l0.165-0.036c1.759-0.473 3.779-0.749 5.863-0.757h0.347c0.409 0.010 0.808 0.029 1.182 0.057 1.078 0.078 2.076 0.243 3.041 0.492l-0.117-0.026v2.29c-0.816-0.2-1.784-0.352-2.775-0.424l-0.059-0.003-0.058-0.005c-0.198-0.017-0.395-0.034-0.579-0.034zM17.722 6.689c0.508 0.039 1.034 0.058 1.566 0.058 2.196-0.009 4.321-0.297 6.346-0.831l-0.175 0.039c2.254-0.575 4.228-1.368 6.064-2.381l-0.131 0.066v22.312c-1.793 1.065-3.867 1.933-6.064 2.497l-0.165 0.036c-1.759 0.471-3.78 0.746-5.864 0.755l-0.005 0c-0.043 0-0.093 0.001-0.144 0.001-1.53 0-3.014-0.192-4.432-0.552l0.124 0.027v-22.458c0.344 0.080 0.698 0.153 1.058 0.214 0.591 0.1 1.214 0.173 1.822 0.218zM29.078 6.862l-0.81 0.272c-0.744 0.25-1.496 0.474-2.25 0.674-2.016 0.54-4.332 0.854-6.72 0.862h-0.005c-0.528 0-1.014-0.014-1.483-0.045l-0.646-0.042v18.222l0.554 0.048c0.514 0.046 1.044 0.068 1.578 0.068 1.886-0.008 3.709-0.258 5.446-0.72l-0.15 0.034c1.587-0.403 2.965-0.913 4.271-1.546l-0.132 0.058 0.346-0.166v-17.718z"></path>
</symbol>
<symbol id="icon-Union-1" viewBox="0 0 32 32">
<path d="M6.128 0l4.771 4.517-8.857-0.005v21.915h23.149v-8.379l4.766 4.512v-22.559h-23.83zM24.982 17.517l-13.528-12.807h13.528v12.807zM20.782 23.22h-15.076v-14.738h1.066v13.74h14.011v0.997zM9.266 29.345l-0.557 1.147-0.557-1.147h-0.467l0.813 1.529v0.891h0.422v-0.891l0.811-1.529h-0.465zM9.966 31.765l0.196-0.564h0.938l0.197 0.564h0.439l-0.916-2.42h-0.378l-0.914 2.42h0.437zM10.631 29.859l0.351 1.004h-0.701l0.351-1.004zM12.848 30.804c-0.057 0.085-0.091 0.19-0.091 0.303 0 0.001 0 0.003 0 0.004v-0c0 0.204 0.072 0.37 0.214 0.497s0.336 0.19 0.575 0.19c0.239 0 0.445-0.065 0.618-0.195l0.136 0.161h0.468l-0.355-0.421c0.14-0.191 0.209-0.435 0.209-0.733h-0.351c0 0.163-0.034 0.311-0.101 0.444l-0.468-0.552 0.165-0.12c0.1-0.068 0.184-0.152 0.249-0.249l0.002-0.003c0.048-0.079 0.076-0.174 0.076-0.275 0-0.001 0-0.003-0-0.004v0c0-0.003 0-0.006 0-0.009 0-0.149-0.065-0.283-0.169-0.374l-0.001-0c-0.108-0.097-0.251-0.157-0.408-0.157-0.008 0-0.017 0-0.025 0l0.001-0c-0.195 0-0.35 0.056-0.465 0.166s-0.173 0.259-0.173 0.449c0 0.078 0.018 0.157 0.054 0.241 0.038 0.083 0.104 0.184 0.197 0.302-0.179 0.129-0.3 0.24-0.36 0.334zM13.94 31.34c-0.104 0.084-0.237 0.135-0.382 0.136h-0c-0.006 0-0.013 0-0.020 0-0.104 0-0.199-0.040-0.27-0.106l0 0c-0.067-0.066-0.108-0.157-0.108-0.259 0-0.005 0-0.009 0-0.014l-0 0.001c0-0.129 0.067-0.245 0.2-0.346l0.052-0.037 0.528 0.624zM13.507 30.267c-0.114-0.141-0.172-0.257-0.172-0.351 0-0.081 0.024-0.148 0.070-0.201 0.044-0.049 0.107-0.081 0.178-0.081 0.004 0 0.007 0 0.010 0l-0.001-0c0.003-0 0.006-0 0.009-0 0.067 0 0.127 0.026 0.173 0.068l-0-0c0.048 0.045 0.072 0.099 0.072 0.161 0 0.003 0 0.006 0 0.009 0 0.090-0.040 0.171-0.103 0.226l-0 0-0.052 0.041-0.184 0.127zM17.446 31.582c0.166-0.145 0.261-0.347 0.286-0.605h-0.419c-0.022 0.173-0.075 0.296-0.158 0.37s-0.208 0.112-0.372 0.112c-0.18 0-0.318-0.069-0.412-0.206s-0.14-0.337-0.14-0.599v-0.214c0.003-0.259 0.052-0.453 0.15-0.587 0.099-0.134 0.24-0.201 0.422-0.201 0.157 0 0.276 0.039 0.357 0.116s0.133 0.202 0.153 0.376h0.419c-0.027-0.265-0.121-0.47-0.285-0.615s-0.378-0.218-0.645-0.218c-0.198 0-0.373 0.048-0.525 0.142-0.152 0.097-0.271 0.234-0.345 0.396l-0.002 0.006c-0.077 0.169-0.122 0.367-0.122 0.576 0 0.010 0 0.020 0 0.030l-0-0.001v0.226c0.003 0.223 0.045 0.418 0.125 0.587s0.193 0.298 0.339 0.39c0.148 0.091 0.318 0.136 0.511 0.136 0.276 0 0.497-0.072 0.663-0.216zM19.918 31.243c0.082-0.18 0.123-0.388 0.123-0.625v-0.134c0-0.007 0-0.016 0-0.024 0-0.216-0.047-0.421-0.131-0.605l0.004 0.009c-0.077-0.171-0.199-0.31-0.35-0.406l-0.004-0.002c-0.152-0.095-0.326-0.143-0.524-0.143s-0.372 0.048-0.525 0.144c-0.152 0.095-0.27 0.233-0.354 0.414-0.079 0.175-0.125 0.38-0.125 0.595 0 0.011 0 0.021 0 0.032l-0-0.002v0.136c0.001 0.232 0.043 0.436 0.126 0.613 0.084 0.178 0.203 0.315 0.356 0.411 0.154 0.095 0.329 0.143 0.525 0.143 0.199 0 0.374-0.048 0.526-0.143 0.152-0.097 0.27-0.234 0.352-0.413zM19.468 29.874c0.102 0.143 0.152 0.349 0.152 0.618v0.126c0 0.272-0.050 0.48-0.151 0.622-0.099 0.142-0.242 0.213-0.429 0.213-0.005 0-0.011 0-0.017 0-0.171 0-0.323-0.086-0.413-0.216l-0.001-0.002c-0.104-0.145-0.155-0.351-0.155-0.617v-0.14c0.002-0.26 0.054-0.462 0.156-0.603 0.091-0.13 0.24-0.215 0.409-0.215 0.006 0 0.012 0 0.018 0l-0.001-0c0.187 0 0.33 0.072 0.431 0.214z"></path>
</symbol>
<symbol id="icon-linkedin-1-1" viewBox="0 0 32 32">
<path d="M31.992 32h0.008v-11.738c0-5.741-1.237-10.163-7.947-10.163-3.227 0-5.392 1.77-6.277 3.45h-0.093v-2.914h-6.365v21.363h6.627v-10.578c0-2.786 0.528-5.48 3.978-5.48 3.398 0 3.448 3.179 3.448 5.658v10.402h6.621zM0.528 10.635h6.635v21.365h-6.635v-21.365zM3.843 0c-2.123 0-3.843 1.721-3.843 3.843v0c0 2.12 1.722 3.878 3.843 3.878 2.12 0 3.842-1.757 3.842-3.878s-1.72-3.841-3.841-3.843h-0z"></path>
</symbol>
<symbol id="icon-Vector5-1" viewBox="0 0 32 32">
<path d="M20.528 5.312h2.923v-5.088c-1.232-0.143-2.661-0.224-4.108-0.224-0.052 0-0.104 0-0.156 0l0.008-0c-4.213 0-7.099 2.65-7.099 7.52v4.48h-4.646v5.688h4.646v14.312h5.698v-14.31h4.462l0.707-5.69h-5.168v-3.92c0-1.643 0.443-2.768 2.734-2.768z"></path>
</symbol>
<symbol id="icon-Vector4-2" viewBox="0 0 32 32">
<path d="M32 6.078c-1.1 0.493-2.376 0.857-3.713 1.028l-0.068 0.007c1.36-0.817 2.382-2.078 2.873-3.579l0.013-0.046c-1.197 0.722-2.591 1.273-4.076 1.573l-0.084 0.014c-1.2-1.279-2.9-2.076-4.787-2.076-3.622 0-6.558 2.936-6.558 6.558 0 0.001 0 0.003 0 0.004v-0c0 0.52 0.043 1.021 0.152 1.496-5.454-0.266-10.28-2.88-13.522-6.861-0.564 0.949-0.899 2.092-0.902 3.313v0.001c0 2.272 1.171 4.286 2.914 5.453-1.091-0.030-2.107-0.325-2.994-0.823l0.033 0.017v0.072c0.004 3.164 2.237 5.804 5.213 6.437l0.043 0.008c-0.5 0.137-1.075 0.216-1.668 0.216-0.018 0-0.036-0-0.055-0l0.003 0c-0.419 0-0.843-0.024-1.242-0.112 0.85 2.598 3.261 4.509 6.13 4.57-2.215 1.746-5.045 2.8-8.122 2.8-0.004 0-0.008 0-0.013 0h0.001c-0.018 0-0.040 0-0.062 0-0.531 0-1.055-0.034-1.569-0.099l0.061 0.006c2.826 1.846 6.287 2.944 10.004 2.944 0.021 0 0.042-0 0.063-0h-0.003c12.072 0 18.672-10 18.672-18.669 0-0.288-0.010-0.57-0.024-0.848 1.299-0.936 2.39-2.064 3.258-3.355l0.030-0.047z"></path>
</symbol>
<symbol id="icon-instagram-2-1" viewBox="0 0 32 32">
<path d="M31.968 9.408c-0.074-1.701-0.349-2.869-0.742-3.882-0.424-1.111-1.054-2.059-1.85-2.837l-0.001-0.001c-0.78-0.792-1.724-1.419-2.778-1.827l-0.054-0.018c-1.019-0.394-2.181-0.667-3.882-0.742-1.712-0.082-2.256-0.101-6.602-0.101-4.344 0-4.888 0.019-6.595 0.094-1.699 0.074-2.869 0.349-3.88 0.742-1.112 0.424-2.060 1.054-2.839 1.85l-0.001 0.001c-0.791 0.78-1.418 1.724-1.825 2.778l-0.018 0.054c-0.395 1.019-0.669 2.181-0.744 3.882-0.082 1.712-0.101 2.256-0.101 6.602 0 4.344 0.019 4.888 0.094 6.595 0.075 1.701 0.35 2.869 0.744 3.882 0.426 1.11 1.055 2.057 1.849 2.837l0.001 0.001c0.8 0.813 1.77 1.443 2.832 1.843 1.019 0.395 2.182 0.67 3.882 0.744 1.707 0.075 2.251 0.094 6.595 0.094 4.346 0 4.89-0.019 6.595-0.094 1.701-0.074 2.869-0.349 3.882-0.742 2.157-0.85 3.833-2.526 4.664-4.628l0.019-0.055c0.394-1.019 0.669-2.182 0.744-3.882 0.075-1.707 0.093-2.251 0.093-6.595s-0.006-4.888-0.080-6.595zM29.088 22.474c-0.070 1.563-0.333 2.406-0.55 2.97-0.552 1.399-1.64 2.486-3.004 3.024l-0.036 0.012c-0.56 0.219-1.411 0.482-2.968 0.55-1.688 0.075-2.194 0.094-6.464 0.094-4.269 0-4.782-0.019-6.464-0.094-1.563-0.069-2.406-0.331-2.97-0.55-0.721-0.269-1.334-0.676-1.836-1.192l-0.001-0.001c-0.517-0.503-0.924-1.117-1.184-1.803l-0.011-0.034c-0.218-0.563-0.48-1.413-0.549-2.97-0.075-1.688-0.094-2.195-0.094-6.464 0-4.27 0.019-4.784 0.094-6.464 0.069-1.563 0.331-2.406 0.549-2.97 0.269-0.722 0.678-1.337 1.198-1.837l0.002-0.002c0.504-0.517 1.119-0.923 1.806-1.182l0.034-0.011c0.56-0.219 1.411-0.48 2.968-0.55 1.688-0.074 2.195-0.093 6.464-0.093 4.275 0 4.782 0.019 6.464 0.093 1.563 0.069 2.406 0.331 2.97 0.55 0.693 0.256 1.325 0.662 1.837 1.194 0.531 0.52 0.938 1.144 1.195 1.84 0.218 0.56 0.48 1.411 0.549 2.968 0.075 1.688 0.094 2.194 0.094 6.464 0 4.269-0.019 4.768-0.094 6.458z"></path>
<path d="M16.059 7.782c-4.539 0.002-8.218 3.682-8.219 8.221v0c0.091 4.471 3.737 8.060 8.221 8.060s8.13-3.589 8.221-8.052l0-0.009c-0.001-4.54-3.681-8.22-8.221-8.221h-0zM16.059 21.334c-2.945-0-5.332-2.388-5.332-5.333s2.388-5.333 5.333-5.333c0 0 0.001 0 0.001 0h-0c2.946 0 5.334 2.388 5.334 5.334s-2.388 5.334-5.334 5.334v0zM26.525 7.458c0 1.060-0.86 1.92-1.92 1.92s-1.92-0.86-1.92-1.92v0c0-1.060 0.86-1.92 1.92-1.92s1.92 0.86 1.92 1.92v0z"></path>
</symbol>
<symbol id="icon-astronaut-1-1" viewBox="0 0 32 32">
<path fill="#2196f3" style="fill: var(--color2, #2196f3)" d="M31.974 4.524c-0.064-0.191-0.227-0.332-0.427-0.362l-0.003-0-1.911-0.278-0.855-1.731c-0.179-0.365-0.777-0.365-0.956 0l-0.855 1.731-1.911 0.278c-0.26 0.039-0.457 0.26-0.457 0.528 0 0.15 0.062 0.285 0.161 0.382l1.383 1.348-0.326 1.903c-0.034 0.2 0.048 0.402 0.212 0.522 0.166 0.12 0.383 0.135 0.562 0.040l1.709-0.899 1.709 0.899c0.072 0.038 0.157 0.061 0.247 0.061 0.295 0 0.534-0.239 0.534-0.534 0-0.031-0.003-0.062-0.008-0.092l0 0.003-0.326-1.903 1.383-1.348c0.099-0.097 0.161-0.233 0.161-0.382 0-0.059-0.009-0.115-0.027-0.168l0.001 0.004zM29.511 5.851c-0.126 0.122-0.183 0.299-0.153 0.472l0.191 1.114-1-0.526c-0.072-0.039-0.158-0.062-0.249-0.062s-0.177 0.023-0.252 0.063l0.003-0.001-1 0.526 0.191-1.114c0.005-0.027 0.008-0.059 0.008-0.091 0-0.149-0.061-0.285-0.16-0.381l-0-0-0.811-0.79 1.119-0.162c0.174-0.025 0.324-0.134 0.402-0.292l0.5-1.013 0.5 1.013c0.078 0.158 0.228 0.267 0.402 0.292l1.119 0.162-0.809 0.79zM26.134 20.522h-1.067v1.067h1.067v-1.067zM26.134 22.656h-1.067v1.066h1.067v-1.066zM27.2 21.589h-1.067v1.067h1.067v-1.067zM25.067 21.589h-1.067v1.067h1.067v-1.067zM22.4 26.389h-1.067v1.067h1.067v-1.067zM22.4 28.523h-1.067v1.067h1.067v-1.067zM23.467 27.456h-1.067v1.067h1.067v-1.067zM21.334 27.456h-1.067v1.067h1.067v-1.067zM16 24.256h-1.066v1.067h1.066v-1.067zM16 26.389h-1.066v1.067h1.066v-1.067zM17.067 25.322h-1.067v1.067h1.067v-1.067zM14.934 25.322h-1.067v1.067h1.067v-1.067zM5.867 6.122h-1.066v1.066h1.066v-1.066zM5.867 8.256h-1.066v1.066h1.066v-1.066zM6.933 7.189h-1.067v1.067h1.066v-1.067zM4.8 7.189h-1.067v1.067h1.067v-1.067z"></path>
<path fill="#212121" style="fill: var(--color3, #212121)" d="M24.715 14.16c-0.28-0.376-0.698-0.636-1.179-0.703l-0.009-0.001c-0.076-0.012-0.164-0.018-0.254-0.018-0.411 0-0.789 0.139-1.090 0.373l0.004-0.003-1.253 0.96-1.898 1.417-1.358-0.541c2.421-1.086 4.113-3.508 4.113-6.32 0-3.823-3.122-6.934-6.961-6.934s-6.961 3.11-6.961 6.934c0 1.386 0.415 2.674 1.12 3.759l-2.768-0.024c-0.009 0-0.016 0.005-0.023 0.005-0.057 0.003-0.11 0.014-0.159 0.033l0.004-0.001c-0.013 0.005-0.026 0.007-0.038 0.013-0.006 0.003-0.013 0.003-0.019 0.006l-3.233 1.596c-0 0-0.001 0-0.001 0.001l-1.893 0.91c-0.024 0.011-0.045 0.023-0.065 0.036l0.001-0.001c-0.482 0.324-0.795 0.867-0.795 1.483 0 0.297 0.073 0.577 0.201 0.823l-0.005-0.010c0.22 0.424 0.592 0.742 1.043 0.885l0.013 0.003c0.161 0.053 0.345 0.083 0.537 0.083 0.308 0 0.598-0.078 0.851-0.216l-0.009 0.005 1.388-0.738 2.264-1.169 1.357-0.008-5.442 5.415c0 0.001-0.001 0.001-0.001 0.001l-1.339 1.333c-0.303 0.299-0.491 0.714-0.491 1.173 0 0.002 0 0.003 0 0.005v-0c0.002 0.919 0.748 1.664 1.667 1.664 0.001 0 0.002 0 0.002 0h-0c0.428 0 0.854-0.162 1.18-0.485l1.314-1.309 1.741-1.3 0.901 0.897-3.102 3.088c-0.303 0.299-0.491 0.714-0.491 1.173 0 0.001 0 0.003 0 0.004v-0c0 0.445 0.174 0.864 0.49 1.179 0.302 0.3 0.717 0.485 1.176 0.485 0.001 0 0.002 0 0.003 0h-0c0.427 0 0.855-0.162 1.18-0.485l4.488-4.472c0.007-0.006 0.016-0.009 0.022-0.016l5.166-5.658 3.471 0.494c0.025 0.004 0.050 0.006 0.075 0.006 0.064 0 0.127-0.016 0.187-0.038 0.017-0.006 0.032-0.015 0.049-0.023 0.019-0.010 0.039-0.015 0.058-0.027l3.213-2.133c0.012-0.008 0.018-0.021 0.029-0.030 0.013-0.010 0.029-0.014 0.041-0.026l1.271-1.191c0.348-0.326 0.564-0.787 0.564-1.3 0-0.4-0.132-0.769-0.355-1.066l0.003 0.005zM2.13 17.77c-0.098 0.054-0.215 0.086-0.34 0.086-0.078 0-0.153-0.013-0.224-0.036l0.005 0.001c-0.294-0.093-0.504-0.364-0.504-0.683 0-0.235 0.114-0.444 0.289-0.575l0.002-0.001 1.314-0.632 0.316 0.924 0.133 0.389-0.992 0.527zM5.627 15.942l-1.548 0.8-0.255-0.746-0.184-0.537 2.027-1.001-0.040 1.484zM20.727 9.322c0 0.918-0.219 1.785-0.599 2.56l-4.181-1.899c-0.044-0.575-0.342-1.072-0.782-1.384l-0.006-0.004 1.464-4.861c2.377 0.757 4.104 2.975 4.104 5.588zM8.938 9.322c0-3.235 2.644-5.867 5.894-5.867 0.253 0 0.5 0.022 0.745 0.053l-1.432 4.753c-0.019 0-0.037-0.006-0.057-0.006-0 0-0.001 0-0.001 0-1.032 0-1.869 0.835-1.872 1.867v0c0.003 1.031 0.84 1.867 1.872 1.867 0 0 0 0 0.001 0h-0c0.695 0 1.295-0.383 1.618-0.944l3.863 1.755c-1.075 1.447-2.795 2.39-4.737 2.39-3.25 0-5.894-2.632-5.894-5.867zM14.895 10.122c0 0.441-0.362 0.8-0.806 0.8-0 0-0.001 0-0.001 0-0.443 0-0.802-0.358-0.804-0.8v-0c0-0.441 0.361-0.8 0.806-0.8s0.806 0.359 0.806 0.8zM2.464 25.146c-0.11 0.109-0.261 0.176-0.428 0.176s-0.317-0.067-0.427-0.175l0 0c-0.109-0.108-0.176-0.257-0.176-0.422s0.067-0.314 0.176-0.422l0-0 0.962-0.959 0.852 0.848-0.959 0.954zM5.678 28.88c-0.11 0.109-0.261 0.176-0.428 0.176s-0.317-0.067-0.427-0.175l0 0c-0.109-0.108-0.176-0.257-0.176-0.422s0.067-0.314 0.176-0.422l0-0 0.963-0.959 0.852 0.848-0.96 0.955zM9.16 25.411l-0.001 0.001-1.765 1.76-0.852-0.848 1.765-1.757c0.040-0.040 0.065-0.088 0.090-0.136 0.007-0.014 0.020-0.026 0.026-0.040 0.016-0.041 0.019-0.085 0.026-0.128 0.003-0.025 0.014-0.048 0.014-0.073 0-0.035-0.013-0.070-0.020-0.105-0.006-0.032-0.006-0.064-0.019-0.096-0.025-0.053-0.055-0.098-0.092-0.138l0 0c-0.010-0.012-0.014-0.026-0.025-0.038h-0.001s0-0.001-0.001-0.002l-1.607-1.6c-0.017-0.017-0.039-0.024-0.058-0.038-0.025-0.021-0.054-0.040-0.084-0.056l-0.003-0.001c-0.026-0.012-0.058-0.023-0.090-0.031l-0.003-0.001c-0.030-0.009-0.065-0.017-0.101-0.020l-0.002-0c-0.007-0-0.015-0-0.023-0-0.026 0-0.051 0.002-0.075 0.005l0.003-0c-0.036 0.005-0.069 0.009-0.104 0.021s-0.064 0.027-0.094 0.045c-0.020 0.011-0.043 0.015-0.061 0.029l-1.774 1.324-0.901-0.897 2.399-2.386 4.36 4.289-0.928 0.919zM15.979 18.394c-0.016-0.002-0.030 0.004-0.046 0.003-0.008-0-0.017-0.001-0.027-0.001-0.031 0-0.062 0.003-0.092 0.008l0.003-0c-0.070 0.011-0.132 0.035-0.187 0.070l0.002-0.001c-0.030 0.018-0.057 0.037-0.083 0.061-0.013 0.011-0.028 0.016-0.040 0.029l-4.698 5.146-4.328-4.256 2.833-2.818c0.096-0.097 0.156-0.23 0.156-0.377 0-0.295-0.239-0.534-0.534-0.534-0.001 0-0.001 0-0.002 0h0l-2.219 0.013 0.028-1.607 3.104 0.027c1.264 1.297 3.027 2.101 4.978 2.101 0.001 0 0.002 0 0.003 0h-0c0.438 0 0.864-0.046 1.28-0.122 0.040 0.032 0.080 0.064 0.129 0.085l2.41 0.96 0.152 0.758 0.178 0.886-3.003-0.427zM20.020 18.572l-0.313-1.558 1.446-1.080 0.946 1.257-2.080 1.381zM23.773 15.741l-0.837 0.785-0.931-1.236 0.831-0.637c0.155-0.119 0.351-0.168 0.543-0.143 0.193 0.027 0.364 0.128 0.48 0.284 0.088 0.117 0.141 0.265 0.141 0.426 0 0.206-0.087 0.391-0.226 0.521l-0 0z"></path>
<path fill="#212121" style="fill: var(--color3, #212121)" d="M13.602 18.544l-2.143-2.134c-0.096-0.096-0.229-0.155-0.376-0.155s-0.28 0.059-0.376 0.155l-2.143 2.133c-0.097 0.097-0.156 0.23-0.156 0.378s0.060 0.281 0.156 0.378l-0-0 2.142 2.134c0.096 0.096 0.229 0.156 0.376 0.156s0.28-0.059 0.376-0.156v0l2.143-2.134c0.097-0.097 0.157-0.23 0.157-0.378s-0.060-0.281-0.157-0.378l-0-0zM11.083 20.303l-1.387-1.381 1.386-1.381 1.387 1.381-1.387 1.381zM17.164 5.071l-0.258 1.036c0.071 0.018 1.738 0.452 1.738 2.149h1.067c0-2.017-1.666-2.965-2.547-3.184zM19.711 9.322h-1.067v1.066h1.067v-1.066z"></path>
</symbol>
<symbol id="icon-Vector4-1" viewBox="0 0 32 32">
<path d="M1.599 28.291h25.586c0 0 0 0 0 0 0.883 0 1.599-0.716 1.599-1.599v0-2.132c0-0.883-0.716-1.599-1.599-1.599v0h-0.533v-13.294l3.028-2.868c0.207 0.104 0.452 0.166 0.711 0.166 0.888 0 1.608-0.72 1.608-1.608s-0.72-1.608-1.608-1.608c-0.888 0-1.608 0.72-1.608 1.608 0 0.247 0.056 0.481 0.155 0.69l-0.004-0.010-2.281 2.162v-1.23c0-0.883-0.716-1.599-1.599-1.599v0h-21.323c-0.883 0-1.599 0.716-1.599 1.599v15.992h-0.533c-0.883 0-1.599 0.716-1.599 1.599v0 2.132c0 0.883 0.716 1.599 1.599 1.599v0zM30.384 4.837c0.294 0 0.533 0.239 0.533 0.533s-0.239 0.533-0.533 0.533v0c-0.294 0-0.533-0.239-0.533-0.533s0.239-0.533 0.533-0.533v0zM3.198 6.969c0-0.294 0.239-0.533 0.533-0.533h21.323c0.294 0 0.533 0.239 0.533 0.533v2.239l-1.066 1.013v-2.185c0-0.295-0.239-0.534-0.534-0.534h-19.189c-0.294 0-0.534 0.239-0.534 0.533v13.327c0 0.294 0.239 0.533 0.534 0.533h19.189c0.295 0 0.534-0.239 0.534-0.533v-9.675l1.066-1.010v12.283h-22.389v-15.99zM7.996 13.899c-0.001 0-0.003 0-0.005 0-0.883 0-1.599 0.716-1.599 1.599s0.716 1.599 1.599 1.599c0.432 0 0.824-0.172 1.112-0.45l-0 0 1.853 0.93c0.215 0.107 0.476 0.057 0.636-0.123l3.939-4.431 3.872 2.902c0.208 0.155 0.498 0.139 0.686-0.039l3.365-3.188v8.131h-18.123v-12.261h18.123v2.661l-3.771 3.572-3.904-2.927c-0.088-0.067-0.2-0.107-0.32-0.107-0.158 0-0.3 0.069-0.398 0.178l-0 0.001-3.993 4.493-1.493-0.746c0.011-0.064 0.017-0.128 0.020-0.193 0-0.883-0.716-1.599-1.599-1.599v0zM8.529 15.498c0 0.294-0.239 0.533-0.533 0.533s-0.533-0.239-0.533-0.533v0c0-0.294 0.239-0.533 0.533-0.533s0.533 0.239 0.533 0.533v0zM11.727 24.026h5.33v0.533c0 0.294-0.238 0.533-0.533 0.533h-4.265c-0.294 0-0.533-0.239-0.533-0.533v0-0.533zM1.067 24.56c0-0.294 0.238-0.533 0.533-0.533h9.062v0.533c0 0.883 0.716 1.599 1.599 1.599v0h4.265c0.883 0 1.599-0.716 1.599-1.599v0-0.533h9.062c0.294 0 0.533 0.239 0.533 0.533v2.132c0 0.294-0.239 0.533-0.533 0.533h-25.586c-0 0-0 0-0 0-0.294 0-0.533-0.239-0.533-0.533 0 0 0 0 0 0v0-2.132z"></path>
</symbol>
<symbol id="icon-Vector3-1" viewBox="0 0 31 32">
<path d="M30.839 15.301c-0.001-8.452-6.855-15.303-15.308-15.301s-15.303 6.855-15.301 15.308c0.002 6.788 4.422 12.543 10.541 14.545l0.108 0.031c0.061 0.019 0.123 0.029 0.187 0.029 0.12 0 0.238-0.032 0.342-0.094 0.135-0.080 0.236-0.207 0.283-0.357l3.865-12.25c1.054-0.004 1.906-0.859 1.906-1.913 0-1.056-0.856-1.913-1.913-1.913-0.303 0-0.59 0.071-0.845 0.196l0.011-0.005-5.106-5.107c-0.114-0.11-0.271-0.179-0.443-0.179-0.352 0-0.638 0.286-0.638 0.638 0 0.172 0.068 0.328 0.179 0.443l-0-0 5.103 5.109c-0.121 0.241-0.191 0.525-0.191 0.825 0 0.602 0.283 1.137 0.724 1.481l0.004 0.003-3.683 11.673c-7.278-2.681-11.004-10.754-8.324-18.032s10.754-11.004 18.032-8.323c7.278 2.681 11.004 10.754 8.323 18.032-1.345 3.581-4.003 6.406-7.374 7.938l-0.088 0.036-0.398-1.874c-0.063-0.291-0.318-0.506-0.624-0.506-0.164 0-0.313 0.062-0.426 0.163l0.001-0.001-3.837 3.426c-0.132 0.117-0.214 0.287-0.214 0.477 0 0.283 0.185 0.524 0.441 0.606l0.005 0.001 4.899 1.563c0.058 0.020 0.126 0.031 0.196 0.031 0.352 0 0.637-0.285 0.637-0.637 0-0.047-0.005-0.093-0.015-0.138l0.001 0.004-0.391-1.839c5.528-2.374 9.328-7.772 9.328-14.057 0-0.011 0-0.023-0-0.034v0.002zM15.535 14.664c0.352 0 0.638 0.286 0.638 0.638s-0.286 0.638-0.638 0.638v0c-0.352 0-0.638-0.286-0.638-0.638s0.286-0.638 0.638-0.638v0zM17.635 29.528l2.184-1.948 0.603 2.84-2.787-0.892z"></path>
</symbol>
<symbol id="icon-Vector2-1" viewBox="0 0 30 32">
<path d="M29.859 22.098l-8.443-8.505 0.937-4.616c0.225 0.090 0.485 0.144 0.758 0.146h0.007c0.008 0 0.017 0 0.026 0 1.192 0 2.159-0.967 2.159-2.159s-0.967-2.159-2.159-2.159c-1.192 0-2.159 0.967-2.159 2.159 0 0.259 0.046 0.508 0.13 0.739l-0.005-0.015-4.96 0.606-8.091-8.133c-0.096-0.098-0.229-0.159-0.376-0.16h-0c-0.14 0.001-0.274 0.057-0.373 0.155l-1.512 1.504c-0.096 0.097-0.156 0.23-0.156 0.377s0.060 0.281 0.156 0.377v0l0.814 0.825c-1.143 2.062-1.816 4.522-1.816 7.139 0 4.106 1.656 7.824 4.336 10.525l-0.001-0.001c0.043 0.041 0.092 0.074 0.146 0.097-0.032 0.164-0.051 0.353-0.052 0.546v6.188h-6.4c-1.472 0.001-2.666 1.194-2.667 2.666v1.067c0 0.295 0.239 0.534 0.534 0.534h24.534c0.294 0 0.533-0.239 0.533-0.534v-1.067c-0.002-1.472-1.195-2.665-2.666-2.666h-6.4v-2.742c1.003 0.21 2.024 0.317 3.049 0.32 2.58-0.003 5.005-0.663 7.117-1.822l-0.077 0.039 0.818 0.823c0.099 0.101 0.235 0.159 0.376 0.16 0.14-0.001 0.274-0.057 0.373-0.155l1.512-1.504c0.096-0.097 0.156-0.23 0.156-0.377s-0.060-0.281-0.156-0.377v0zM22.366 6.233c0.193-0.192 0.459-0.31 0.752-0.31 0.589 0 1.067 0.478 1.067 1.066s-0.477 1.066-1.067 1.066c-0 0-0 0-0 0h-0.004c-0.587-0.003-1.061-0.479-1.061-1.066 0-0.295 0.12-0.563 0.314-0.756l0-0h-0.002zM21.11 9.737l-0.598 2.946-1.175-1.183 1.774-1.763zM20.504 8.835l-1.92 1.909-1.486-1.493 3.406-0.416zM23.090 28.8c0.884 0 1.6 0.716 1.6 1.6v0 0.534h-23.466v-0.534c0-0.884 0.716-1.6 1.6-1.6v0h20.267zM15.623 26.666v1.067h-5.334v-1.067h5.334zM10.29 25.6v-4.053c0-1.294 1.196-2.346 2.666-2.346s2.667 1.053 2.667 2.346v4.053h-5.333zM16.69 23.904v-2.357c0-1.882-1.675-3.413-3.733-3.413-0.017-0-0.038-0-0.058-0-1.353 0-2.54 0.707-3.213 1.771l-0.009 0.016c-2.36-2.482-3.812-5.846-3.812-9.55 0-2.314 0.567-4.496 1.569-6.414l-0.036 0.077 18.602 18.709c-1.823 0.947-3.979 1.502-6.266 1.502-1.079 0-2.128-0.124-3.136-0.357l0.093 0.018zM27.979 23.22l-21.057-21.181 0.754-0.752 7.935 7.98c0.004 0 0.006 0.007 0.010 0.010l13.115 13.191-0.757 0.752z"></path>
</symbol>
<symbol id="icon-Vector-1" viewBox="0 0 32 32">
<path d="M23 0h-14c-1.654 0-3 1.346-3 3v26c0 1.654 1.346 3 3 3h14c1.654 0 3-1.346 3-3v-26c0-1.654-1.346-3-3-3zM9 2h14c0.552 0 1 0.448 1 1v0 21h-16v-21c0-0.552 0.448-1 1-1v0zM23 30h-14c-0.552 0-1-0.448-1-1v0-3h16v3c0 0.552-0.448 1-1 1v0z"></path>
</symbol>
<symbol id="icon-envelope-1" viewBox="0 0 32 32">
<path  d="M29 4h-26c-1.654 0-3 1.346-3 3v18c0 1.654 1.346 3 3 3h26c1.654 0 3-1.346 3-3v-18c0-1.654-1.346-3-3-3zM29 6c0.136 0 0.266 0.028 0.384 0.078l-13.384 11.6-13.384-11.6c0.113-0.049 0.245-0.078 0.384-0.078h26zM29 26h-26c-0.552 0-1-0.448-1-1v0-16.81l13.344 11.566c0.175 0.152 0.404 0.245 0.656 0.245s0.481-0.093 0.657-0.246l-0.001 0.001 13.344-11.566v16.81c0 0.552-0.448 1-1 1v0z"></path>
</symbol>
<symbol id="icon-Logo-4-1" viewBox="0 0 57 32">
<path d="M14.27 23.859c0.13 0.147 0.199 0.332 0.196 0.521 0.001 0.012 0.001 0.026 0.001 0.039 0 0.117-0.026 0.227-0.073 0.326l0.002-0.005c-0.056 0.119-0.135 0.218-0.232 0.296l-0.002 0.001c-0.221 0.152-0.494 0.243-0.789 0.243-0.032 0-0.064-0.001-0.096-0.003l0.004 0h-1.549v-3.301h1.517c0.027-0.002 0.058-0.003 0.090-0.003 0.279 0 0.539 0.083 0.756 0.225l-0.005-0.003c0.098 0.076 0.176 0.171 0.227 0.277 0.051 0.108 0.074 0.224 0.068 0.341 0.009 0.181-0.053 0.361-0.176 0.505-0.118 0.131-0.281 0.222-0.462 0.258 0.205 0.034 0.391 0.134 0.523 0.283zM12.454 23.361h0.649c0.147 0.010 0.293-0.029 0.412-0.11 0.047-0.039 0.085-0.088 0.109-0.144l0.001-0.003c0.019-0.043 0.030-0.092 0.030-0.145 0-0.011-0.001-0.022-0.001-0.033l0 0.001c0.001-0.008 0.001-0.018 0.001-0.028 0-0.053-0.011-0.104-0.031-0.15l0.001 0.002c-0.025-0.058-0.062-0.108-0.108-0.147l-0.001-0c-0.105-0.071-0.234-0.113-0.373-0.113-0.018 0-0.036 0.001-0.054 0.002l0.002-0h-0.638v0.867zM13.578 24.627c0.051-0.040 0.091-0.091 0.118-0.149l0.001-0.003c0.022-0.046 0.034-0.101 0.034-0.158 0-0.009-0-0.018-0.001-0.027l0 0.001c0-0.007 0.001-0.016 0.001-0.024 0-0.059-0.013-0.115-0.037-0.165l0.001 0.002c-0.029-0.061-0.070-0.112-0.121-0.151l-0.001-0.001c-0.112-0.076-0.249-0.121-0.397-0.121-0.015 0-0.030 0-0.045 0.001l0.002-0h-0.68v0.908h0.689c0.155 0.008 0.308-0.032 0.435-0.115zM17.371 25.278l-0.843-1.291h-0.317v1.291h-0.726v-3.302h1.374c0.029-0.002 0.064-0.003 0.098-0.003 0.323 0 0.622 0.107 0.862 0.287l-0.004-0.003c0.192 0.179 0.308 0.415 0.327 0.666 0.002 0.021 0.002 0.045 0.002 0.069 0 0.241-0.086 0.461-0.228 0.633l0.001-0.002c-0.171 0.175-0.396 0.296-0.649 0.335l-0.006 0.001 0.899 1.319h-0.789zM16.21 23.538h0.594c0.412 0 0.619-0.166 0.619-0.5 0-0.008 0.001-0.017 0.001-0.027 0-0.063-0.013-0.122-0.035-0.176l0.001 0.003c-0.028-0.067-0.068-0.124-0.118-0.171l-0-0c-0.113-0.085-0.255-0.136-0.41-0.136-0.020 0-0.040 0.001-0.060 0.003l0.003-0h-0.601l0.007 1.005zM21.339 24.613h-1.446l-0.255 0.665h-0.761l1.328-3.265h0.823l1.323 3.265h-0.761l-0.25-0.665zM21.145 24.114l-0.529-1.394-0.529 1.394h1.057zM26.305 25.278h-0.72l-1.616-2.245v2.245h-0.719v-3.302h0.719l1.616 2.259v-2.259h0.72v3.302zM30.418 24.488c-0.149 0.249-0.376 0.452-0.652 0.582-0.28 0.132-0.608 0.209-0.955 0.209-0.021 0-0.041-0-0.062-0.001l0.003 0h-1.282v-3.302h1.283c0.018-0 0.039-0.001 0.060-0.001 0.345 0 0.673 0.075 0.968 0.209l-0.015-0.006c0.276 0.128 0.503 0.329 0.652 0.576 0.148 0.269 0.226 0.565 0.226 0.867s-0.077 0.597-0.226 0.866zM29.593 24.409c0.196-0.205 0.317-0.482 0.318-0.788v-0c0-0.289-0.113-0.569-0.318-0.788-0.223-0.177-0.509-0.284-0.82-0.284-0.029 0-0.058 0.001-0.086 0.003l0.004-0h-0.5v2.138h0.5c0.025 0.002 0.054 0.003 0.083 0.003 0.311 0 0.596-0.107 0.822-0.285l-0.003 0.002zM21.79 3.609s9.3 3.215 9.103 7.867v7.869s-9.294-3.216-9.1-7.869l-0.003-7.867zM39.179 17.503c1.757-1.107 3.788-1.792 5.909-1.994v-2.464c-2.444 0.863-4.517 2.427-5.909 4.458z"></path>
<path d="M38.124 18.245c1.437-2.651 3.93-4.696 6.964-5.716v-7.098s-13.245 4.58-12.965 11.205v11.203s0.59-0.205 1.519-0.589c0-0.358 0-0.719 0.043-1.083 0.274-3.075 1.87-5.925 4.439-7.924z"></path>
<path d="M36.864 22.407c0.069-0.777 0.225-1.546 0.463-2.294-1.599 1.725-2.568 3.867-2.769 6.122-0.020 0.213-0.030 0.426-0.036 0.645 1.105-0.483 1.942-0.895 2.761-1.334l-0.214 0.105c-0.235-1.067-0.304-2.159-0.206-3.244zM37.391 22.447c-0.026 0.273-0.041 0.589-0.041 0.909 0 0.718 0.074 1.419 0.216 2.094l-0.012-0.066c3.619-1.983 7.685-5.046 7.528-8.748v-0.323c-2.586 0.265-5.004 1.3-6.885 2.946-0.415 0.932-0.702 2.014-0.804 3.148l-0.003 0.040z"></path>
</symbol>
<symbol id="icon-group-1" viewBox="0 0 67 32">
<path d="M33.724 15.223c-0.271-0.35-0.435-0.795-0.435-1.278 0-0.048 0.002-0.095 0.005-0.142l-0 0.006v-2.051c0-0.628 0.142-1.106 0.428-1.433 0.284-0.327 0.774-0.489 1.468-0.488 0.652 0 1.116 0.139 1.389 0.417 0.299 0.355 0.444 0.789 0.411 1.226v0.482h-1.166v-0.489c0.004-0.159-0.007-0.319-0.034-0.477-0.020-0.116-0.081-0.214-0.166-0.283l-0.001-0.001c-0.105-0.070-0.234-0.112-0.373-0.112-0.018 0-0.035 0.001-0.052 0.002l0.002-0c-0.015-0.001-0.033-0.002-0.050-0.002-0.147 0-0.283 0.044-0.397 0.12l0.003-0.002c-0.096 0.077-0.166 0.185-0.193 0.309l-0.001 0.004c-0.030 0.14-0.047 0.302-0.047 0.467 0 0.014 0 0.028 0 0.042l-0-0.002v2.488c-0.019 0.24 0.033 0.48 0.149 0.698 0.061 0.075 0.139 0.133 0.23 0.168l0.004 0.001c0.068 0.027 0.148 0.043 0.231 0.043 0.025 0 0.050-0.001 0.074-0.004l-0.003 0c0.015 0.001 0.032 0.002 0.049 0.002 0.136 0 0.262-0.043 0.365-0.116l-0.002 0.001c0.090-0.075 0.153-0.18 0.174-0.299l0-0.003c0.027-0.165 0.040-0.332 0.036-0.498v-0.505h1.167v0.461c0.003 0.036 0.004 0.079 0.004 0.122 0 0.443-0.153 0.85-0.41 1.171l0.003-0.004c-0.268 0.304-0.725 0.457-1.397 0.457s-1.179-0.163-1.466-0.501zM38.583 15.245c-0.295-0.32-0.442-0.784-0.442-1.399v-2.157c0-0.609 0.147-1.070 0.442-1.383s0.787-0.469 1.478-0.467c0.686 0 1.176 0.156 1.471 0.467 0.294 0.313 0.444 0.774 0.444 1.383v2.156c0 0.609-0.149 1.077-0.449 1.398s-0.787 0.481-1.466 0.481-1.181-0.163-1.479-0.479zM40.604 14.727c0.106-0.199 0.154-0.419 0.14-0.638v-2.641c0.001-0.021 0.002-0.046 0.002-0.071 0-0.203-0.052-0.394-0.142-0.561l0.003 0.006c-0.062-0.076-0.142-0.135-0.234-0.17l-0.004-0.001c-0.068-0.027-0.146-0.042-0.229-0.042-0.028 0-0.056 0.002-0.083 0.005l0.003-0c-0.024-0.003-0.051-0.005-0.079-0.005-0.083 0-0.161 0.015-0.234 0.043l0.004-0.002c-0.096 0.036-0.177 0.096-0.239 0.171l-0.001 0.001c-0.107 0.195-0.154 0.41-0.14 0.626v2.652c-0.014 0.22 0.033 0.439 0.14 0.639 0.068 0.067 0.152 0.121 0.246 0.158 0.089 0.036 0.192 0.056 0.3 0.056s0.211-0.021 0.305-0.058l-0.006 0.002c0.095-0.037 0.178-0.091 0.246-0.158v-0.013zM43.381 9.902h1.256l0.944 3.979 0.967-3.979h1.222l0.124 5.743h-0.904l-0.097-3.991-0.932 3.991h-0.725l-0.966-4.006-0.090 4.006h-0.913l0.114-5.743zM49.301 9.902h1.957c1.127 0 1.691 0.543 1.691 1.631 0 1.041-0.594 1.562-1.781 1.56h-0.666v2.552h-1.208l0.007-5.744zM50.973 12.356c0.119 0.014 0.24 0.004 0.356-0.028 0.114-0.031 0.22-0.083 0.309-0.154 0.139-0.194 0.2-0.422 0.174-0.649 0.001-0.019 0.001-0.041 0.001-0.063 0-0.163-0.022-0.321-0.062-0.471l0.003 0.013c-0.019-0.061-0.050-0.114-0.089-0.158l0 0c-0.042-0.047-0.093-0.086-0.149-0.114l-0.003-0.001c-0.141-0.059-0.304-0.094-0.476-0.094-0.022 0-0.044 0.001-0.066 0.002l0.003-0h-0.469v1.717h0.469zM54.692 9.902h1.297l1.331 5.743h-1.126l-0.263-1.324h-1.157l-0.27 1.324h-1.143l1.331-5.743zM55.8 13.655l-0.452-2.411-0.452 2.411h0.903zM58.394 9.902h0.846l1.618 3.276v-3.276h1.003v5.743h-0.804l-1.628-3.42v3.42h-1.036l0.002-5.743zM64.209 13.454l-1.345-3.545h1.133l0.821 2.278 0.77-2.278h1.109l-1.329 3.546v2.19h-1.159v-2.19zM35.59 18.156v0.3h-0.986v2.334h-0.413v-2.334h-0.991v-0.3h2.389zM38.679 20.79h-0.319c-0.003 0-0.006 0-0.009 0-0.030 0-0.058-0.009-0.081-0.025l0 0c-0.023-0.015-0.041-0.035-0.052-0.060l-0-0.001-0.285-0.626h-1.367l-0.284 0.626c-0.009 0.028-0.024 0.052-0.044 0.071l-0 0c-0.023 0.016-0.052 0.025-0.082 0.025-0.003 0-0.005-0-0.008-0h-0.318l1.208-2.634h0.42l1.223 2.624zM36.679 19.812h1.14l-0.484-1.072c-0.031-0.067-0.061-0.15-0.086-0.235l-0.003-0.014c-0.017 0.050-0.031 0.098-0.045 0.14l-0.044 0.11-0.478 1.070zM40.762 20.531c0.076 0.004 0.151 0.004 0.228 0 0.065-0.006 0.129-0.016 0.193-0.031 0.059-0.012 0.117-0.028 0.174-0.048 0.053-0.018 0.107-0.042 0.161-0.065v-0.592h-0.483c-0.001 0-0.003 0-0.004 0-0.023 0-0.044-0.008-0.061-0.022l0 0c-0.008-0.006-0.014-0.013-0.018-0.021l-0-0c-0.004-0.007-0.006-0.015-0.006-0.024 0-0.001 0-0.002 0-0.003v0-0.202h0.937v1.010c-0.147 0.091-0.316 0.165-0.496 0.211l-0.013 0.003c-0.1 0.026-0.2 0.043-0.302 0.055-0.117 0.011-0.235 0.016-0.353 0.016-0.005 0-0.010 0-0.015 0-0.212 0-0.416-0.036-0.606-0.102l0.013 0.004c-0.186-0.065-0.347-0.158-0.486-0.277l0.002 0.002c-0.129-0.114-0.234-0.253-0.308-0.409l-0.003-0.008c-0.070-0.156-0.111-0.338-0.111-0.529 0-0.006 0-0.012 0-0.019v0.001c-0-0.005-0-0.010-0-0.016 0-0.193 0.040-0.377 0.112-0.543l-0.003 0.009c0.069-0.156 0.176-0.299 0.311-0.417 0.138-0.119 0.302-0.211 0.484-0.273 0.206-0.068 0.427-0.101 0.647-0.098 0.112 0 0.225 0.007 0.336 0.023 0.098 0.014 0.195 0.036 0.287 0.067 0.085 0.027 0.166 0.063 0.242 0.105 0.074 0.041 0.144 0.087 0.211 0.137l-0.116 0.163c-0.010 0.015-0.023 0.027-0.039 0.035l-0.001 0c-0.016 0.009-0.035 0.014-0.055 0.014h-0c-0.028-0.001-0.053-0.008-0.075-0.021l0.001 0c-0.049-0.023-0.088-0.044-0.126-0.066l0.007 0.004c-0.045-0.025-0.099-0.049-0.154-0.069l-0.008-0.002c-0.062-0.022-0.136-0.042-0.213-0.057l-0.009-0.001c-0.087-0.015-0.188-0.023-0.29-0.023-0.006 0-0.011 0-0.017 0h0.001c-0.004-0-0.010-0-0.015-0-0.162 0-0.317 0.027-0.462 0.076l0.010-0.003c-0.134 0.046-0.256 0.117-0.356 0.208-0.095 0.090-0.171 0.199-0.222 0.321l-0.002 0.006c-0.051 0.13-0.081 0.281-0.081 0.439s0.030 0.309 0.084 0.448l-0.003-0.008c0.053 0.124 0.135 0.237 0.242 0.332 0.099 0.090 0.219 0.161 0.352 0.208 0.154 0.046 0.316 0.063 0.479 0.052zM44.612 20.49h1.319v0.3h-1.722v-2.634h0.412l-0.009 2.334zM47.303 20.79h-0.412v-2.634h0.412v2.634zM48.84 18.169c0.025 0.012 0.046 0.028 0.063 0.047l0 0 1.766 1.985c-0.001-0.014-0.002-0.030-0.002-0.047s0.001-0.033 0.002-0.049l-0 0.002v-1.963h0.36v2.645h-0.208c-0.004 0-0.009 0-0.014 0-0.027 0-0.054-0.006-0.077-0.016l0.001 0c-0.025-0.013-0.047-0.030-0.065-0.050l-0-0-1.764-1.984v2.048h-0.346v-2.634h0.215c0.023 0 0.047 0.004 0.068 0.012zM54.070 18.156v0.289h-1.463v0.87h1.186v0.279h-1.186v0.9h1.463v0.289h-1.889v-2.628h1.889zM10.782 1.889l18.343 4.496v15.757l-18.343-4.494v-15.76zM9.605 0.545v17.868l20.693 5.075v-17.866l-20.693-5.076z"></path>
<path d="M20.696 31.781l-20.696-5.079v-17.865l20.696 5.077v17.867z"></path>
<path d="M9.948 1.686l18.103 4.44-7.698 6.649-18.107-4.442 7.702-6.647zM9.605 0.545l-9.605 8.292 20.696 5.077 9.603-8.294-20.693-5.075zM21.86 30.776l8.439-7.288-8.439-2.069v9.358z"></path>
</symbol>
<symbol id="icon-Logo-3-1" viewBox="0 0 57 32">
<path d="M12.878 11.255h-0.002c-1.279 0-2.316 0.921-2.316 2.058v0.002c0 1.137 1.037 2.058 2.316 2.058h0.002c1.279 0 2.316-0.922 2.316-2.058v-0.001c0-1.137-1.037-2.059-2.316-2.059zM29.971 10.597c-0.004-1.579-0.711-3.092-1.967-4.209s-2.958-1.745-4.734-1.749c-1.777 0.003-3.481 0.631-4.737 1.748s-1.964 2.63-1.968 4.209v8.706s13.405-1.327 13.406-8.704v-0.002zM5.867 22.16c0.003 1.099 0.496 2.151 1.37 2.928s2.058 1.214 3.294 1.218c1.236-0.003 2.42-0.441 3.294-1.218s1.366-1.829 1.37-2.927v-6.058s-9.327 0.924-9.327 6.057zM10.53 23.245c-0.242 0-0.477-0.063-0.678-0.183-0.195-0.115-0.35-0.281-0.447-0.48l-0.003-0.007c-0.059-0.121-0.093-0.264-0.093-0.415 0-0.075 0.009-0.148 0.025-0.219l-0.001 0.007c0.047-0.211 0.163-0.404 0.334-0.556s0.388-0.255 0.625-0.297c0.072-0.013 0.154-0.021 0.239-0.021 0.168 0 0.328 0.030 0.476 0.085l-0.009-0.003c0.223 0.082 0.414 0.221 0.548 0.4s0.206 0.388 0.206 0.603c0.001 0.143-0.030 0.285-0.092 0.417-0.066 0.139-0.155 0.256-0.263 0.352l-0.001 0.001c-0.113 0.101-0.248 0.181-0.397 0.236-0.139 0.053-0.3 0.083-0.467 0.083-0 0-0.001 0-0.001 0h0v-0.004zM19.956 22.647h-0.9v0.93h-0.469v-2.276h1.482v0.38h-1.013v0.588h0.9v0.378zM22.209 22.491c0 0.224-0.039 0.42-0.118 0.589s-0.193 0.299-0.341 0.391c-0.139 0.086-0.308 0.138-0.489 0.138-0.006 0-0.012-0-0.018-0h0.001c-0.189 0-0.357-0.045-0.505-0.136-0.149-0.094-0.267-0.226-0.341-0.382l-0.002-0.006c-0.078-0.165-0.123-0.358-0.123-0.561 0-0.007 0-0.014 0-0.021v0.001-0.112c0-0.224 0.040-0.421 0.12-0.591 0.081-0.171 0.195-0.302 0.342-0.392 0.148-0.092 0.316-0.138 0.506-0.138s0.357 0.046 0.505 0.138c0.148 0.091 0.262 0.221 0.342 0.392 0.081 0.17 0.122 0.366 0.122 0.589v0.101zM21.734 22.388c0-0.238-0.043-0.42-0.128-0.544-0.076-0.113-0.203-0.186-0.348-0.186-0.006 0-0.013 0-0.019 0l0.001-0c-0.005-0-0.012-0-0.018-0-0.144 0-0.271 0.073-0.346 0.183l-0.001 0.001c-0.085 0.122-0.129 0.301-0.13 0.538v0.111c0 0.232 0.043 0.412 0.128 0.54s0.208 0.192 0.369 0.192c0.006 0 0.012 0 0.018 0 0.143 0 0.269-0.073 0.343-0.183l0.001-0.001c0.084-0.124 0.127-0.304 0.128-0.541v-0.111zM23.729 22.98c0-0.004 0-0.009 0-0.013 0-0.077-0.037-0.145-0.093-0.189l-0.001-0c-0.062-0.048-0.175-0.098-0.338-0.15-0.15-0.047-0.278-0.1-0.399-0.163l0.014 0.006c-0.259-0.14-0.388-0.328-0.388-0.564 0-0.123 0.034-0.233 0.103-0.328 0.070-0.097 0.17-0.172 0.299-0.227 0.13-0.054 0.276-0.081 0.437-0.081 0.163 0 0.307 0.029 0.435 0.089 0.127 0.059 0.226 0.141 0.295 0.249 0.071 0.107 0.107 0.229 0.107 0.365h-0.469c0-0.104-0.032-0.185-0.098-0.242-0.066-0.059-0.158-0.087-0.276-0.087-0.115 0-0.204 0.025-0.267 0.074-0.058 0.042-0.096 0.109-0.096 0.185 0 0.002 0 0.004 0 0.006v-0c0 0.074 0.037 0.136 0.111 0.186 0.075 0.050 0.185 0.097 0.33 0.14 0.267 0.080 0.461 0.18 0.583 0.299s0.183 0.267 0.183 0.444c0 0.197-0.075 0.352-0.224 0.464s-0.349 0.167-0.601 0.167c-0.175 0-0.334-0.032-0.478-0.096-0.135-0.057-0.247-0.148-0.328-0.261l-0.002-0.002c-0.070-0.105-0.112-0.234-0.112-0.373 0-0.005 0-0.010 0-0.015v0.001h0.47c0 0.251 0.15 0.377 0.45 0.377 0.111 0 0.198-0.022 0.261-0.067 0.057-0.041 0.093-0.107 0.093-0.182 0-0.003-0-0.006-0-0.009v0zM26.231 21.682h-0.697v1.895h-0.469v-1.895h-0.686v-0.38h1.853v0.38zM27.868 22.591h-0.9v0.61h1.056v0.377h-1.525v-2.276h1.522v0.38h-1.053v0.542h0.9v0.367zM29.142 22.744h-0.373v0.833h-0.469v-2.276h0.845c0.269 0 0.476 0.060 0.622 0.18s0.219 0.289 0.219 0.508c0 0.155-0.034 0.285-0.101 0.389-0.075 0.109-0.179 0.194-0.3 0.245l-0.005 0.002 0.492 0.93v0.021h-0.503l-0.427-0.832zM28.769 22.364h0.379c0.117 0 0.208-0.029 0.273-0.089 0.060-0.059 0.097-0.141 0.097-0.231 0-0.006-0-0.012-0-0.018l0 0.001c0-0.108-0.030-0.192-0.092-0.253s-0.154-0.092-0.28-0.092h-0.377v0.683zM31.609 22.775v0.802h-0.469v-2.276h0.887c0.171 0 0.321 0.031 0.45 0.094 0.13 0.062 0.23 0.151 0.3 0.267 0.069 0.115 0.105 0.245 0.105 0.392 0 0.223-0.077 0.399-0.229 0.528-0.153 0.128-0.363 0.193-0.633 0.193h-0.411zM31.609 22.396h0.419c0.124 0 0.219-0.029 0.283-0.087 0.066-0.059 0.099-0.142 0.099-0.25 0-0.005 0-0.011 0-0.017 0-0.098-0.037-0.187-0.099-0.254l0 0c-0.066-0.068-0.156-0.104-0.272-0.106h-0.43v0.715zM34.574 22.591h-0.9v0.61h1.056v0.377h-1.525v-2.276h1.522v0.38h-1.053v0.542h0.9v0.367zM36.75 21.682h-0.697v1.895h-0.469v-1.895h-0.687v-0.38h1.853v0.38zM38.387 22.591h-0.899v0.61h1.056v0.377h-1.525v-2.276h1.522v0.38h-1.053v0.542h0.9v0.367zM39.661 22.744h-0.373v0.833h-0.469v-2.276h0.846c0.269 0 0.476 0.060 0.622 0.18s0.219 0.289 0.219 0.508c0 0.155-0.034 0.285-0.101 0.389-0.075 0.109-0.179 0.194-0.301 0.245l-0.005 0.002 0.492 0.93v0.021h-0.503l-0.427-0.832zM39.287 22.364h0.378c0.117 0 0.209-0.029 0.273-0.089 0.060-0.059 0.097-0.141 0.097-0.232 0-0.006-0-0.012-0-0.018l0 0.001c0-0.108-0.030-0.192-0.092-0.253-0.060-0.061-0.154-0.092-0.279-0.092h-0.377v0.683zM42.042 22.98c0-0.004 0-0.009 0-0.013 0-0.077-0.037-0.146-0.094-0.189l-0.001-0c-0.062-0.048-0.175-0.098-0.338-0.15-0.15-0.047-0.278-0.1-0.399-0.163l0.014 0.006c-0.259-0.14-0.388-0.328-0.388-0.564 0-0.123 0.035-0.233 0.103-0.328 0.070-0.097 0.17-0.172 0.299-0.227 0.13-0.054 0.276-0.081 0.437-0.081 0.163 0 0.307 0.029 0.435 0.089 0.127 0.059 0.226 0.141 0.295 0.249 0.071 0.107 0.107 0.229 0.107 0.365h-0.469c0-0.104-0.032-0.185-0.098-0.242-0.066-0.059-0.158-0.087-0.276-0.087-0.115 0-0.204 0.025-0.267 0.074-0.058 0.042-0.096 0.109-0.096 0.186 0 0.002 0 0.003 0 0.005v-0c0 0.074 0.037 0.136 0.111 0.186s0.185 0.097 0.33 0.14c0.267 0.080 0.461 0.18 0.583 0.299s0.183 0.267 0.183 0.444c0 0.197-0.075 0.352-0.224 0.464s-0.349 0.167-0.601 0.167c-0.175 0-0.334-0.032-0.478-0.096-0.135-0.057-0.247-0.148-0.328-0.261l-0.002-0.002c-0.070-0.105-0.112-0.234-0.112-0.373 0-0.005 0-0.010 0-0.015v0.001h0.47c0 0.251 0.15 0.377 0.45 0.377 0.111 0 0.198-0.022 0.261-0.067 0.057-0.041 0.094-0.107 0.094-0.182 0-0.003-0-0.006-0-0.009v0z"></path>
</symbol>
<symbol id="icon-Logo-2-1" viewBox="0 0 57 32">
<path d="M19.417 26.187c0.009 0 0.017 0.002 0.025 0.005s0.015 0.007 0.021 0.013l-0-0 0.116 0.111c-0.091 0.090-0.202 0.162-0.327 0.211-0.129 0.048-0.278 0.076-0.434 0.076-0.011 0-0.021-0-0.032-0l0.002 0c-0.149 0.003-0.298-0.021-0.436-0.071-0.128-0.046-0.237-0.114-0.33-0.2l0.001 0.001c-0.090-0.085-0.161-0.188-0.21-0.302l-0.002-0.006c-0.047-0.114-0.075-0.246-0.075-0.385 0-0.004 0-0.008 0-0.012v0.001c-0-0.006-0-0.013-0-0.020 0-0.272 0.118-0.516 0.305-0.684l0.001-0.001c0.099-0.087 0.218-0.155 0.349-0.201 0.143-0.048 0.296-0.072 0.45-0.070 0.008-0 0.018-0 0.028-0 0.139 0 0.273 0.024 0.398 0.067l-0.009-0.003c0.115 0.044 0.221 0.104 0.313 0.179l-0.098 0.118c-0.007 0.008-0.015 0.015-0.024 0.021l-0 0c-0.010 0.006-0.021 0.009-0.034 0.009-0.002 0-0.004-0-0.006-0l0 0c-0.016-0.001-0.030-0.005-0.043-0.012l0 0-0.052-0.032-0.073-0.041c-0.066-0.032-0.144-0.057-0.225-0.070l-0.005-0.001c-0.048-0.008-0.104-0.013-0.161-0.013-0.004 0-0.009 0-0.013 0h0.001c-0.003-0-0.007-0-0.011-0-0.112 0-0.219 0.020-0.319 0.055l0.007-0.002c-0.098 0.034-0.182 0.085-0.254 0.15l0.001-0.001c-0.073 0.068-0.128 0.149-0.164 0.237-0.038 0.089-0.059 0.193-0.059 0.302 0 0.004 0 0.008 0 0.011v-0.001c-0 0.004-0 0.008-0 0.013 0 0.11 0.022 0.215 0.061 0.311l-0.002-0.005c0.036 0.087 0.091 0.167 0.162 0.236 0.067 0.064 0.149 0.115 0.242 0.147 0.095 0.034 0.196 0.051 0.299 0.051 0.059 0.001 0.119-0.003 0.178-0.010 0.148-0.015 0.28-0.074 0.385-0.164l-0.001 0.001c0.015-0.012 0.034-0.020 0.055-0.020h0zM22.775 25.629c0 0.003 0 0.008 0 0.012 0 0.138-0.029 0.269-0.081 0.387l0.002-0.006c-0.052 0.12-0.126 0.222-0.218 0.304l-0.001 0.001c-0.097 0.086-0.211 0.154-0.337 0.198l-0.007 0.002c-0.132 0.045-0.284 0.071-0.442 0.071s-0.31-0.026-0.452-0.074l0.010 0.003c-0.132-0.047-0.245-0.115-0.342-0.202l0.001 0.001c-0.093-0.084-0.168-0.187-0.219-0.303l-0.002-0.006c-0.050-0.116-0.078-0.251-0.078-0.393s0.029-0.277 0.081-0.4l-0.003 0.007c0.050-0.115 0.125-0.22 0.221-0.309 0.097-0.085 0.213-0.15 0.341-0.194 0.132-0.046 0.284-0.072 0.442-0.072s0.31 0.026 0.452 0.075l-0.010-0.003c0.129 0.045 0.246 0.114 0.343 0.201 0.096 0.088 0.171 0.192 0.22 0.305 0.054 0.127 0.081 0.261 0.078 0.396zM22.47 25.629c0-0.005 0-0.011 0-0.017 0-0.108-0.020-0.211-0.058-0.305l0.002 0.006c-0.071-0.182-0.216-0.322-0.396-0.384l-0.005-0.001c-0.096-0.033-0.206-0.052-0.321-0.052s-0.225 0.019-0.329 0.054l0.007-0.002c-0.096 0.034-0.178 0.085-0.246 0.15l0-0c-0.068 0.064-0.122 0.143-0.156 0.232l-0.001 0.004c-0.035 0.094-0.055 0.202-0.055 0.316s0.020 0.222 0.058 0.322l-0.002-0.006c0.071 0.182 0.217 0.322 0.399 0.383l0.005 0.001c0.207 0.068 0.435 0.068 0.643 0 0.093-0.033 0.177-0.083 0.245-0.148 0.070-0.069 0.123-0.149 0.156-0.236 0.039-0.101 0.058-0.209 0.055-0.316zM25.067 25.96l0.031 0.070c0.011-0.025 0.021-0.048 0.033-0.070 0.013-0.027 0.026-0.050 0.039-0.072l-0.002 0.003 0.743-1.174c0.015-0.020 0.028-0.033 0.043-0.037s0.033-0.007 0.051-0.007c0.003 0 0.007 0 0.010 0l-0-0h0.22v1.909h-0.26v-1.463c-0.001-0.010-0.001-0.021-0.001-0.033s0-0.023 0.001-0.035l-0 0.002-0.748 1.19c-0.010 0.018-0.025 0.033-0.043 0.043l-0.001 0c-0.018 0.010-0.040 0.016-0.063 0.016-0 0-0.001 0-0.001 0h-0.042c-0 0-0.001 0-0.002 0-0.023 0-0.044-0.006-0.063-0.016l0.001 0c-0.018-0.010-0.033-0.025-0.043-0.043l-0-0.001-0.77-1.198v1.532h-0.251v-1.905h0.219c0.003-0 0.007-0 0.010-0 0.018 0 0.036 0.002 0.052 0.007l-0.001-0c0.018 0.008 0.032 0.021 0.041 0.037l0.759 1.175c0.014 0.020 0.026 0.042 0.037 0.066l0.001 0.003zM27.863 25.865v0.715h-0.29v-1.906h0.649c0.123-0.002 0.244 0.012 0.362 0.042 0.094 0.023 0.181 0.064 0.256 0.119 0.062 0.049 0.111 0.112 0.144 0.184l0.001 0.003c0.035 0.078 0.051 0.161 0.050 0.244 0 0.003 0 0.008 0 0.012 0 0.172-0.082 0.325-0.209 0.422l-0.001 0.001c-0.075 0.057-0.163 0.1-0.258 0.126-0.098 0.028-0.211 0.044-0.327 0.044-0.008 0-0.016-0-0.024-0l-0.351-0.005zM27.863 25.66h0.352c0.076 0.001 0.153-0.009 0.226-0.029 0.062-0.018 0.116-0.046 0.164-0.083l-0.001 0.001c0.082-0.068 0.133-0.169 0.133-0.282 0-0.002 0-0.003-0-0.005v0c0-0.006 0.001-0.013 0.001-0.021 0-0.049-0.011-0.095-0.030-0.137l0.001 0.002c-0.024-0.052-0.059-0.095-0.101-0.13l-0.001-0.001c-0.097-0.065-0.217-0.104-0.345-0.104-0.016 0-0.032 0.001-0.048 0.002l0.002-0h-0.352v0.786zM31.772 26.582h-0.229c-0.001 0-0.003 0-0.004 0-0.022 0-0.043-0.007-0.060-0.018l0 0c-0.016-0.011-0.029-0.026-0.038-0.044l-0-0.001-0.197-0.461h-0.994l-0.205 0.461c-0.018 0.037-0.055 0.062-0.099 0.062-0.001 0-0.002 0-0.003-0h-0.23l0.873-1.909h0.302l0.884 1.909zM30.332 25.874h0.82l-0.346-0.777c-0.027-0.059-0.048-0.118-0.066-0.179l-0.034 0.1c-0.010 0.030-0.021 0.059-0.032 0.081l-0.343 0.775zM33.029 24.683c0.017 0.008 0.032 0.020 0.043 0.034l1.273 1.439v-1.482h0.26v1.909h-0.145c-0.001 0-0.002 0-0.003 0-0.020 0-0.040-0.004-0.057-0.012l0.001 0c-0.018-0.009-0.034-0.021-0.047-0.035l-0-0-1.27-1.438c0.001 0.010 0.001 0.021 0.001 0.033s-0 0.023-0.001 0.034l0-0.002v1.419h-0.26v-1.909h0.154c0.018 0 0.036 0.003 0.052 0.009zM36.748 25.823v0.758h-0.291v-0.757l-0.804-1.15h0.26c0.002-0 0.004-0 0.006-0 0.021 0 0.040 0.006 0.056 0.016l-0-0c0.016 0.013 0.029 0.027 0.039 0.043l0.503 0.742c0.020 0.032 0.038 0.061 0.052 0.089s0.027 0.054 0.037 0.081l0.037-0.082c0.014-0.030 0.031-0.059 0.050-0.087l0.496-0.747c0.011-0.015 0.023-0.029 0.037-0.040l0-0c0.016-0.012 0.036-0.019 0.057-0.019 0.002 0 0.004 0 0.006 0h0.263l-0.805 1.155zM24.923 21.47c0.126 0.014 0.254 0.025 0.384 0.035 1.962-0.763 3.622-2.011 4.772-3.588s1.739-3.415 1.694-5.282l-2.162-1.878c0.439 1.988 0.234 4.043-0.594 5.935s-2.245 3.547-4.094 4.779z"></path>
<path d="M24.151 21.382l0.058 0.011c1.975-1.228 3.481-2.942 4.323-4.922s0.981-4.133 0.4-6.181l-3.080-2.676c1.245 2.199 1.747 4.661 1.445 7.099-0.301 2.437-1.392 4.75-3.147 6.669zM34.596 14.841c-0.523 2.052-1.794 3.902-3.623 5.276-0.5 0.38-1.064 0.737-1.658 1.043l-0.065 0.030c1.49-0.38 2.859-1.053 4.003-1.966s2.030-2.042 2.592-3.3l-1.249-1.084z"></path>
<path d="M34.106 14.539l-1.778-1.545c-0.034 1.762-0.611 3.483-1.669 4.986s-2.562 2.732-4.352 3.559h0.009c0.399 0 0.797-0.021 1.194-0.062 1.673-0.594 3.151-1.538 4.302-2.748s1.94-2.65 2.295-4.189zM24.409 6.485l-2.122-1.845c-1.897 0.637-3.527 1.756-4.68 3.212s-1.772 3.179-1.778 4.946c0.007 1.952 0.763 3.846 2.149 5.383 1.385 1.536 3.321 2.628 5.501 3.101 1.946-2.060 3.085-4.605 3.252-7.266s-0.647-5.299-2.323-7.531zM39.008 14.254c-0.007-2.316-1.070-4.535-2.955-6.173s-4.439-2.561-7.105-2.567c-0.006 0-0.014-0-0.021-0-1.281 0-2.512 0.213-3.66 0.606l0.079-0.024 12.989 11.286c0.423-0.919 0.671-1.995 0.672-3.128v-0z"></path>
</symbol>
<symbol id="icon-Logo-5" viewBox="0 0 57 32">
<path d="M20.267 3.733l3.738 3.538-6.938-0.004v17.167h18.133v-6.564l3.733 3.534v-17.671h-18.667zM35.036 17.455l-10.597-10.032h10.597v10.032zM31.746 21.923h-11.81v-11.545h0.835v10.763h10.975v0.781zM22.725 26.72l-0.436 0.899-0.436-0.899h-0.366l0.637 1.198v0.698h0.331v-0.698l0.635-1.198h-0.364zM23.274 28.616l0.154-0.442h0.734l0.155 0.442h0.344l-0.717-1.896h-0.296l-0.716 1.896h0.342zM23.794 27.123l0.275 0.786h-0.549l0.275-0.787zM25.531 27.863c-0.045 0.067-0.071 0.149-0.071 0.238 0 0.001 0 0.002 0 0.003v-0c0 0.16 0.056 0.29 0.168 0.389s0.263 0.149 0.45 0.149c0.188 0 0.349-0.051 0.485-0.153l0.107 0.126h0.367l-0.278-0.33c0.109-0.149 0.164-0.341 0.164-0.574h-0.275c0 0.128-0.027 0.244-0.079 0.348l-0.366-0.432 0.129-0.094c0.078-0.053 0.144-0.119 0.195-0.195l0.002-0.003c0.038-0.061 0.060-0.136 0.060-0.216 0-0.001 0-0.002 0-0.003v0c0-0.002 0-0.005 0-0.007 0-0.117-0.051-0.221-0.132-0.293l-0-0c-0.084-0.076-0.197-0.123-0.32-0.123-0.007 0-0.013 0-0.020 0l0.001-0c-0.153 0-0.274 0.044-0.364 0.13s-0.135 0.203-0.135 0.352c0 0.061 0.014 0.123 0.043 0.189 0.030 0.065 0.082 0.144 0.155 0.237-0.14 0.101-0.235 0.188-0.282 0.261zM26.387 28.283c-0.081 0.066-0.185 0.106-0.299 0.107h-0c-0.005 0-0.010 0-0.015 0-0.082 0-0.156-0.031-0.212-0.083l0 0c-0.052-0.052-0.085-0.123-0.085-0.203 0-0.004 0-0.007 0-0.011l-0 0.001c0-0.101 0.052-0.192 0.156-0.271l0.041-0.029 0.414 0.489zM26.047 27.443c-0.090-0.11-0.134-0.202-0.134-0.275 0-0.063 0.019-0.116 0.055-0.157 0.034-0.039 0.084-0.063 0.139-0.063 0.003 0 0.005 0 0.008 0h-0c0.002-0 0.004-0 0.007-0 0.052 0 0.1 0.020 0.135 0.054l-0-0c0.037 0.035 0.056 0.077 0.056 0.126 0 0.002 0 0.005 0 0.007 0 0.071-0.031 0.134-0.080 0.177l-0 0-0.041 0.032-0.145 0.099zM29.133 28.473c0.13-0.114 0.205-0.272 0.224-0.474h-0.328c-0.018 0.135-0.059 0.232-0.124 0.29s-0.163 0.087-0.292 0.087c-0.141 0-0.249-0.054-0.323-0.162s-0.11-0.264-0.11-0.469v-0.167c0.002-0.203 0.041-0.355 0.117-0.46 0.077-0.105 0.188-0.157 0.331-0.157 0.123 0 0.217 0.030 0.28 0.091s0.104 0.158 0.12 0.294h0.328c-0.021-0.207-0.095-0.368-0.222-0.482s-0.296-0.171-0.506-0.171c-0.155 0-0.292 0.037-0.411 0.111-0.119 0.076-0.213 0.183-0.27 0.31l-0.002 0.005c-0.060 0.133-0.096 0.288-0.096 0.451 0 0.008 0 0.016 0 0.023l-0-0.001v0.177c0.003 0.174 0.035 0.327 0.098 0.46s0.151 0.234 0.266 0.306c0.116 0.071 0.249 0.107 0.4 0.107 0.216 0 0.389-0.056 0.519-0.169zM31.069 28.207c0.064-0.141 0.097-0.304 0.097-0.49v-0.105c0-0.006 0-0.013 0-0.020 0-0.169-0.036-0.329-0.102-0.473l0.003 0.007c-0.060-0.134-0.156-0.243-0.274-0.318l-0.003-0.002c-0.119-0.075-0.256-0.112-0.411-0.112s-0.291 0.037-0.411 0.113c-0.119 0.075-0.211 0.182-0.277 0.324-0.062 0.137-0.098 0.297-0.098 0.466 0 0.008 0 0.016 0 0.025l-0-0.001v0.107c0.001 0.181 0.034 0.341 0.099 0.48 0.066 0.139 0.159 0.246 0.279 0.322 0.121 0.075 0.258 0.112 0.411 0.112 0.156 0 0.293-0.037 0.412-0.112 0.119-0.076 0.212-0.183 0.276-0.323zM30.716 27.135c0.080 0.112 0.119 0.274 0.119 0.484v0.099c0 0.213-0.039 0.376-0.118 0.487-0.078 0.111-0.19 0.167-0.336 0.167-0.004 0-0.009 0-0.014 0-0.134 0-0.253-0.067-0.324-0.17l-0.001-0.001c-0.081-0.114-0.121-0.275-0.121-0.483v-0.109c0.002-0.204 0.043-0.362 0.122-0.473 0.071-0.102 0.188-0.168 0.321-0.168 0.005 0 0.010 0 0.014 0l-0.001-0c0.146 0 0.259 0.056 0.338 0.168z"></path>
</symbol>
<symbol id="icon-astronaut-1-1" viewBox="0 0 32 32">
<path fill="#2196f3" style="fill: var(--color2, #2196f3)" d="M31.974 4.524c-0.064-0.191-0.227-0.332-0.427-0.362l-0.003-0-1.911-0.278-0.855-1.731c-0.179-0.365-0.777-0.365-0.956 0l-0.855 1.731-1.911 0.278c-0.26 0.039-0.457 0.26-0.457 0.528 0 0.15 0.062 0.285 0.161 0.382l1.383 1.348-0.326 1.903c-0.034 0.2 0.048 0.402 0.212 0.522 0.166 0.12 0.383 0.135 0.562 0.040l1.709-0.899 1.709 0.899c0.072 0.038 0.157 0.061 0.247 0.061 0.295 0 0.534-0.239 0.534-0.534 0-0.031-0.003-0.062-0.008-0.092l0 0.003-0.326-1.903 1.383-1.348c0.099-0.097 0.161-0.233 0.161-0.382 0-0.059-0.009-0.115-0.027-0.168l0.001 0.004zM29.511 5.851c-0.126 0.122-0.183 0.299-0.153 0.472l0.191 1.114-1-0.526c-0.072-0.039-0.158-0.062-0.249-0.062s-0.177 0.023-0.252 0.063l0.003-0.001-1 0.526 0.191-1.114c0.005-0.027 0.008-0.059 0.008-0.091 0-0.149-0.061-0.285-0.16-0.381l-0-0-0.811-0.79 1.119-0.162c0.174-0.025 0.324-0.134 0.402-0.292l0.5-1.013 0.5 1.013c0.078 0.158 0.228 0.267 0.402 0.292l1.119 0.162-0.809 0.79zM26.134 20.522h-1.067v1.067h1.067v-1.067zM26.134 22.656h-1.067v1.066h1.067v-1.066zM27.2 21.589h-1.067v1.067h1.067v-1.067zM25.067 21.589h-1.067v1.067h1.067v-1.067zM22.4 26.389h-1.067v1.067h1.067v-1.067zM22.4 28.523h-1.067v1.067h1.067v-1.067zM23.467 27.456h-1.067v1.067h1.067v-1.067zM21.334 27.456h-1.067v1.067h1.067v-1.067zM16 24.256h-1.066v1.067h1.066v-1.067zM16 26.389h-1.066v1.067h1.066v-1.067zM17.067 25.322h-1.067v1.067h1.067v-1.067zM14.934 25.322h-1.067v1.067h1.067v-1.067zM5.867 6.122h-1.066v1.066h1.066v-1.066zM5.867 8.256h-1.066v1.066h1.066v-1.066zM6.933 7.189h-1.067v1.067h1.066v-1.067zM4.8 7.189h-1.067v1.067h1.067v-1.067z"></path>
<path fill="#212121" style="fill: var(--color3, #212121)" d="M24.715 14.16c-0.28-0.376-0.698-0.636-1.179-0.703l-0.009-0.001c-0.076-0.012-0.164-0.018-0.254-0.018-0.411 0-0.789 0.139-1.090 0.373l0.004-0.003-1.253 0.96-1.898 1.417-1.358-0.541c2.421-1.086 4.113-3.508 4.113-6.32 0-3.823-3.122-6.934-6.961-6.934s-6.961 3.11-6.961 6.934c0 1.386 0.415 2.674 1.12 3.759l-2.768-0.024c-0.009 0-0.016 0.005-0.023 0.005-0.057 0.003-0.11 0.014-0.159 0.033l0.004-0.001c-0.013 0.005-0.026 0.007-0.038 0.013-0.006 0.003-0.013 0.003-0.019 0.006l-3.233 1.596c-0 0-0.001 0-0.001 0.001l-1.893 0.91c-0.024 0.011-0.045 0.023-0.065 0.036l0.001-0.001c-0.482 0.324-0.795 0.867-0.795 1.483 0 0.297 0.073 0.577 0.201 0.823l-0.005-0.010c0.22 0.424 0.592 0.742 1.043 0.885l0.013 0.003c0.161 0.053 0.345 0.083 0.537 0.083 0.308 0 0.598-0.078 0.851-0.216l-0.009 0.005 1.388-0.738 2.264-1.169 1.357-0.008-5.442 5.415c0 0.001-0.001 0.001-0.001 0.001l-1.339 1.333c-0.303 0.299-0.491 0.714-0.491 1.173 0 0.002 0 0.003 0 0.005v-0c0.002 0.919 0.748 1.664 1.667 1.664 0.001 0 0.002 0 0.002 0h-0c0.428 0 0.854-0.162 1.18-0.485l1.314-1.309 1.741-1.3 0.901 0.897-3.102 3.088c-0.303 0.299-0.491 0.714-0.491 1.173 0 0.001 0 0.003 0 0.004v-0c0 0.445 0.174 0.864 0.49 1.179 0.302 0.3 0.717 0.485 1.176 0.485 0.001 0 0.002 0 0.003 0h-0c0.427 0 0.855-0.162 1.18-0.485l4.488-4.472c0.007-0.006 0.016-0.009 0.022-0.016l5.166-5.658 3.471 0.494c0.025 0.004 0.050 0.006 0.075 0.006 0.064 0 0.127-0.016 0.187-0.038 0.017-0.006 0.032-0.015 0.049-0.023 0.019-0.010 0.039-0.015 0.058-0.027l3.213-2.133c0.012-0.008 0.018-0.021 0.029-0.030 0.013-0.010 0.029-0.014 0.041-0.026l1.271-1.191c0.348-0.326 0.564-0.787 0.564-1.3 0-0.4-0.132-0.769-0.355-1.066l0.003 0.005zM2.13 17.77c-0.098 0.054-0.215 0.086-0.34 0.086-0.078 0-0.153-0.013-0.224-0.036l0.005 0.001c-0.294-0.093-0.504-0.364-0.504-0.683 0-0.235 0.114-0.444 0.289-0.575l0.002-0.001 1.314-0.632 0.316 0.924 0.133 0.389-0.992 0.527zM5.627 15.942l-1.548 0.8-0.255-0.746-0.184-0.537 2.027-1.001-0.040 1.484zM20.727 9.322c0 0.918-0.219 1.785-0.599 2.56l-4.181-1.899c-0.044-0.575-0.342-1.072-0.782-1.384l-0.006-0.004 1.464-4.861c2.377 0.757 4.104 2.975 4.104 5.588zM8.938 9.322c0-3.235 2.644-5.867 5.894-5.867 0.253 0 0.5 0.022 0.745 0.053l-1.432 4.753c-0.019 0-0.037-0.006-0.057-0.006-0 0-0.001 0-0.001 0-1.032 0-1.869 0.835-1.872 1.867v0c0.003 1.031 0.84 1.867 1.872 1.867 0 0 0 0 0.001 0h-0c0.695 0 1.295-0.383 1.618-0.944l3.863 1.755c-1.075 1.447-2.795 2.39-4.737 2.39-3.25 0-5.894-2.632-5.894-5.867zM14.895 10.122c0 0.441-0.362 0.8-0.806 0.8-0 0-0.001 0-0.001 0-0.443 0-0.802-0.358-0.804-0.8v-0c0-0.441 0.361-0.8 0.806-0.8s0.806 0.359 0.806 0.8zM2.464 25.146c-0.11 0.109-0.261 0.176-0.428 0.176s-0.317-0.067-0.427-0.175l0 0c-0.109-0.108-0.176-0.257-0.176-0.422s0.067-0.314 0.176-0.422l0-0 0.962-0.959 0.852 0.848-0.959 0.954zM5.678 28.88c-0.11 0.109-0.261 0.176-0.428 0.176s-0.317-0.067-0.427-0.175l0 0c-0.109-0.108-0.176-0.257-0.176-0.422s0.067-0.314 0.176-0.422l0-0 0.963-0.959 0.852 0.848-0.96 0.955zM9.16 25.411l-0.001 0.001-1.765 1.76-0.852-0.848 1.765-1.757c0.040-0.040 0.065-0.088 0.090-0.136 0.007-0.014 0.020-0.026 0.026-0.040 0.016-0.041 0.019-0.085 0.026-0.128 0.003-0.025 0.014-0.048 0.014-0.073 0-0.035-0.013-0.070-0.020-0.105-0.006-0.032-0.006-0.064-0.019-0.096-0.025-0.053-0.055-0.098-0.092-0.138l0 0c-0.010-0.012-0.014-0.026-0.025-0.038h-0.001s0-0.001-0.001-0.002l-1.607-1.6c-0.017-0.017-0.039-0.024-0.058-0.038-0.025-0.021-0.054-0.040-0.084-0.056l-0.003-0.001c-0.026-0.012-0.058-0.023-0.090-0.031l-0.003-0.001c-0.030-0.009-0.065-0.017-0.101-0.020l-0.002-0c-0.007-0-0.015-0-0.023-0-0.026 0-0.051 0.002-0.075 0.005l0.003-0c-0.036 0.005-0.069 0.009-0.104 0.021s-0.064 0.027-0.094 0.045c-0.020 0.011-0.043 0.015-0.061 0.029l-1.774 1.324-0.901-0.897 2.399-2.386 4.36 4.289-0.928 0.919zM15.979 18.394c-0.016-0.002-0.030 0.004-0.046 0.003-0.008-0-0.017-0.001-0.027-0.001-0.031 0-0.062 0.003-0.092 0.008l0.003-0c-0.070 0.011-0.132 0.035-0.187 0.070l0.002-0.001c-0.030 0.018-0.057 0.037-0.083 0.061-0.013 0.011-0.028 0.016-0.040 0.029l-4.698 5.146-4.328-4.256 2.833-2.818c0.096-0.097 0.156-0.23 0.156-0.377 0-0.295-0.239-0.534-0.534-0.534-0.001 0-0.001 0-0.002 0h0l-2.219 0.013 0.028-1.607 3.104 0.027c1.264 1.297 3.027 2.101 4.978 2.101 0.001 0 0.002 0 0.003 0h-0c0.438 0 0.864-0.046 1.28-0.122 0.040 0.032 0.080 0.064 0.129 0.085l2.41 0.96 0.152 0.758 0.178 0.886-3.003-0.427zM20.020 18.572l-0.313-1.558 1.446-1.080 0.946 1.257-2.080 1.381zM23.773 15.741l-0.837 0.785-0.931-1.236 0.831-0.637c0.155-0.119 0.351-0.168 0.543-0.143 0.193 0.027 0.364 0.128 0.48 0.284 0.088 0.117 0.141 0.265 0.141 0.426 0 0.206-0.087 0.391-0.226 0.521l-0 0z"></path>
<path fill="#212121" style="fill: var(--color3, #212121)" d="M13.602 18.544l-2.143-2.134c-0.096-0.096-0.229-0.155-0.376-0.155s-0.28 0.059-0.376 0.155l-2.143 2.133c-0.097 0.097-0.156 0.23-0.156 0.378s0.060 0.281 0.156 0.378l-0-0 2.142 2.134c0.096 0.096 0.229 0.156 0.376 0.156s0.28-0.059 0.376-0.156v0l2.143-2.134c0.097-0.097 0.157-0.23 0.157-0.378s-0.060-0.281-0.157-0.378l-0-0zM11.083 20.303l-1.387-1.381 1.386-1.381 1.387 1.381-1.387 1.381zM17.164 5.071l-0.258 1.036c0.071 0.018 1.738 0.452 1.738 2.149h1.067c0-2.017-1.666-2.965-2.547-3.184zM19.711 9.322h-1.067v1.066h1.067v-1.066z"></path>
</symbol>
<symbol id="icon-diagram-1-1" viewBox="0 0 32 32">
<path fill="#2196f3" style="fill: var(--color2, #2196f3)" d="M14.926 14.965h1.066v4.798h-1.066v-4.798zM19.19 17.097h1.066v2.665h-1.066v-2.665zM10.661 18.696h1.066v1.066h-1.066v-1.066zM7.463 18.163h1.066v1.599h-1.066v-1.599z"></path>
<path fill="#212121" style="fill: var(--color3, #212121)" d="M1.599 28.291h25.586c0 0 0 0 0 0 0.883 0 1.599-0.716 1.599-1.599v0-2.132c0-0.883-0.716-1.599-1.599-1.599v0h-0.533v-13.294l3.028-2.868c0.207 0.104 0.452 0.166 0.711 0.166 0.888 0 1.608-0.72 1.608-1.608s-0.72-1.608-1.608-1.608c-0.888 0-1.608 0.72-1.608 1.608 0 0.247 0.056 0.481 0.155 0.69l-0.004-0.010-2.281 2.162v-1.23c0-0.883-0.716-1.599-1.599-1.599v0h-21.323c-0.883 0-1.599 0.716-1.599 1.599v0 15.992h-0.533c-0.883 0-1.599 0.716-1.599 1.599v0 2.132c0 0.883 0.716 1.599 1.599 1.599v0zM30.384 4.837c0.294 0 0.533 0.239 0.533 0.533s-0.239 0.533-0.533 0.533v0c-0.294 0-0.533-0.239-0.533-0.533s0.239-0.533 0.533-0.533v0zM3.198 6.969c0-0.294 0.239-0.533 0.533-0.533h21.323c0.294 0 0.533 0.239 0.533 0.533v2.239l-1.066 1.013v-2.185c0-0.295-0.239-0.534-0.534-0.534h-19.189c-0.294 0-0.534 0.239-0.534 0.533v13.327c0 0.294 0.239 0.533 0.534 0.533h19.189c0.295 0 0.534-0.239 0.534-0.533v-9.675l1.066-1.010v12.283h-22.389v-15.991zM7.996 13.899c-0.001 0-0.003 0-0.005 0-0.883 0-1.599 0.716-1.599 1.599s0.716 1.599 1.599 1.599c0.432 0 0.824-0.172 1.112-0.45l-0 0 1.853 0.93c0.215 0.107 0.476 0.057 0.636-0.122l3.939-4.432 3.872 2.902c0.208 0.155 0.498 0.139 0.686-0.039l3.365-3.188v8.131h-18.123v-12.261h18.123v2.661l-3.771 3.572-3.904-2.927c-0.088-0.067-0.2-0.107-0.32-0.107-0.158 0-0.3 0.069-0.398 0.178l-0 0.001-3.993 4.493-1.493-0.746c0.011-0.064 0.017-0.128 0.020-0.193 0-0.883-0.716-1.599-1.599-1.599v0zM8.529 15.498c0 0.294-0.239 0.533-0.533 0.533s-0.533-0.239-0.533-0.533v0c0-0.294 0.239-0.533 0.533-0.533s0.533 0.239 0.533 0.533v0zM11.727 24.026h5.33v0.533c0 0.294-0.238 0.533-0.533 0.533h-4.265c-0.294 0-0.533-0.239-0.533-0.533v0-0.533zM1.067 24.56c0-0.294 0.238-0.533 0.533-0.533h9.062v0.533c0 0.883 0.716 1.599 1.599 1.599v0h4.265c0.883 0 1.599-0.716 1.599-1.599v0-0.533h9.062c0.294 0 0.533 0.239 0.533 0.533v2.132c0 0.294-0.239 0.533-0.533 0.533h-25.586c-0 0-0 0-0 0-0.294 0-0.533-0.239-0.533-0.533 0 0 0 0 0 0v0-2.132z"></path>
</symbol>
<symbol id="icon-clock-1-1" viewBox="0 0 32 32">
<path fill="#212121" style="fill: var(--color3, #212121)" d="M31.296 15.301c-0.001-8.452-6.855-15.303-15.308-15.301s-15.303 6.855-15.301 15.308c0.002 6.788 4.422 12.543 10.541 14.545l0.108 0.031c0.061 0.019 0.123 0.029 0.187 0.029 0.12 0 0.238-0.032 0.342-0.094 0.135-0.080 0.236-0.207 0.283-0.357l3.865-12.25c1.054-0.004 1.906-0.859 1.906-1.913 0-1.056-0.856-1.913-1.913-1.913-0.303 0-0.59 0.071-0.845 0.196l0.011-0.005-5.106-5.107c-0.114-0.11-0.271-0.179-0.443-0.179-0.352 0-0.638 0.286-0.638 0.638 0 0.172 0.068 0.328 0.179 0.443l-0-0 5.103 5.109c-0.121 0.241-0.191 0.525-0.191 0.826 0 0.602 0.283 1.137 0.723 1.48l0.004 0.003-3.682 11.673c-7.278-2.681-11.004-10.754-8.324-18.032s10.754-11.004 18.032-8.323c7.278 2.681 11.004 10.754 8.323 18.032-1.345 3.581-4.003 6.406-7.374 7.938l-0.088 0.036-0.398-1.874c-0.063-0.291-0.318-0.506-0.624-0.506-0.164 0-0.313 0.062-0.426 0.163l0.001-0.001-3.837 3.426c-0.132 0.117-0.214 0.287-0.214 0.477 0 0.283 0.185 0.524 0.441 0.606l0.005 0.001 4.899 1.563c0.058 0.020 0.126 0.031 0.196 0.031 0.352 0 0.637-0.285 0.637-0.637 0-0.047-0.005-0.093-0.015-0.138l0.001 0.004-0.391-1.839c5.528-2.374 9.329-7.772 9.329-14.057 0-0.011 0-0.023-0-0.034v0.002zM15.992 14.664c0.352 0 0.638 0.286 0.638 0.638s-0.285 0.638-0.638 0.638v0c-0.352 0-0.638-0.286-0.638-0.638s0.286-0.638 0.638-0.638v0zM18.092 29.528l2.184-1.948 0.603 2.84-2.787-0.892z"></path>
<path fill="#2196f3" style="fill: var(--color2, #2196f3)" d="M15.354 3.185v1.275c0 0.352 0.286 0.638 0.638 0.638s0.638-0.285 0.638-0.638v0-1.275c0-0.352-0.285-0.638-0.638-0.638s-0.638 0.285-0.638 0.638v0zM3.876 14.664c-0.352 0-0.638 0.286-0.638 0.638s0.285 0.638 0.638 0.638h1.275c0.352 0 0.638-0.286 0.638-0.638s-0.285-0.638-0.638-0.638h-1.275zM28.108 15.939c0.352 0 0.638-0.286 0.638-0.638s-0.285-0.638-0.638-0.638h-1.275c-0.352 0-0.638 0.286-0.638 0.638s0.285 0.638 0.638 0.638h1.275z"></path>
</symbol>
<symbol id="icon-antenna-1-1" viewBox="0 0 32 32">
<path fill="#212121" style="fill: var(--color3, #212121)" d="M30.773 22.098l-8.443-8.505 0.937-4.616c0.225 0.090 0.485 0.144 0.758 0.146h0.007c0.008 0 0.017 0 0.026 0 1.192 0 2.159-0.967 2.159-2.159s-0.967-2.159-2.159-2.159c-1.192 0-2.159 0.967-2.159 2.159 0 0.259 0.046 0.508 0.13 0.739l-0.005-0.015-4.96 0.606-8.091-8.133c-0.096-0.098-0.229-0.159-0.376-0.16h-0c-0.14 0.001-0.274 0.057-0.373 0.155l-1.512 1.504c-0.096 0.097-0.156 0.23-0.156 0.377s0.060 0.281 0.156 0.377v0l0.814 0.825c-1.143 2.062-1.816 4.522-1.816 7.139 0 4.106 1.656 7.824 4.336 10.525l-0.001-0.001c0.043 0.041 0.092 0.074 0.146 0.097-0.032 0.164-0.051 0.353-0.052 0.546v6.188h-6.4c-1.472 0.001-2.666 1.194-2.667 2.666v1.067c0 0.295 0.239 0.534 0.534 0.534h24.534c0.294 0 0.533-0.239 0.533-0.534v-1.067c-0.002-1.472-1.195-2.665-2.666-2.666h-6.4v-2.742c1.003 0.21 2.024 0.317 3.049 0.32 2.58-0.003 5.005-0.663 7.117-1.822l-0.077 0.039 0.818 0.823c0.099 0.101 0.235 0.159 0.376 0.16 0.14-0.001 0.274-0.057 0.373-0.155l1.512-1.504c0.096-0.097 0.156-0.23 0.156-0.377s-0.060-0.281-0.156-0.377v0zM23.28 6.233c0.193-0.192 0.459-0.31 0.752-0.31 0.589 0 1.067 0.478 1.067 1.066s-0.477 1.066-1.067 1.066c-0 0-0 0-0 0h-0.004c-0.587-0.003-1.061-0.479-1.061-1.066 0-0.295 0.12-0.563 0.314-0.756l0-0h-0.002zM22.024 9.737l-0.598 2.946-1.175-1.183 1.774-1.763zM21.419 8.835l-1.92 1.909-1.486-1.493 3.406-0.416zM24.004 28.8c0.884 0 1.6 0.716 1.6 1.6v0 0.534h-23.466v-0.534c0-0.884 0.716-1.6 1.6-1.6v0h20.267zM16.538 26.666v1.067h-5.334v-1.067h5.334zM11.204 25.6v-4.053c0-1.294 1.196-2.346 2.667-2.346s2.667 1.053 2.667 2.346v4.053h-5.334zM17.604 23.904v-2.357c0-1.882-1.675-3.413-3.733-3.413-0.017-0-0.038-0-0.058-0-1.353 0-2.54 0.707-3.213 1.771l-0.009 0.016c-2.36-2.482-3.812-5.846-3.812-9.55 0-2.314 0.567-4.496 1.569-6.414l-0.036 0.077 18.602 18.709c-1.823 0.947-3.979 1.502-6.266 1.502-1.079 0-2.128-0.124-3.136-0.357l0.093 0.018zM28.893 23.22l-21.057-21.181 0.754-0.752 7.935 7.98c0.004 0 0.006 0.007 0.010 0.010l13.114 13.191-0.757 0.752z"></path>
<path fill="#2196f3" style="fill: var(--color2, #2196f3)" d="M13.876 20.267h-0.005c-0.001 0-0.002 0-0.002 0-0.884 0-1.6 0.716-1.6 1.6s0.715 1.599 1.597 1.6h0.005c0.001 0 0.001 0 0.002 0 0.884 0 1.6-0.716 1.6-1.6s-0.715-1.599-1.598-1.6h-0zM14.249 22.245c-0.096 0.096-0.229 0.155-0.376 0.155-0.295 0-0.534-0.239-0.534-0.534s0.238-0.533 0.532-0.533h0c0.293 0.001 0.531 0.239 0.531 0.533 0 0.148-0.060 0.282-0.157 0.378l-0 0h0.005z"></path>
</symbol>
<symbol id="icon-Logo-1" viewBox="0 0 57 32">
<path d="M26.727 3.165h-0.073c-0.112-0.007-0.224-0.010-0.336-0.012v0h-0.243c-0.212 0-0.428 0.005-0.642 0.016-0.016-0.001-0.032-0.001-0.049 0-1.944 0.11-3.848 0.596-5.609 1.431l-0.231 0.111v11.809l0.54-0.183c0.474-0.163 0.978-0.309 1.5-0.445 1.411-0.362 2.861-0.555 4.317-0.574v1.551c-0.193 0.001-0.38 0.007-0.568 0.016h-0.045c-1.121 0.061-2.233 0.232-3.322 0.51-1.378 0.345-2.708 0.863-3.957 1.542v-15.145c1.298-0.757 2.695-1.325 4.151-1.688 1.278-0.33 2.593-0.5 3.913-0.504h0.228c0.273 0.007 0.538 0.019 0.788 0.038 0.658 0.046 1.31 0.15 1.95 0.311v1.527c-0.621-0.145-1.253-0.24-1.889-0.285-0.013-0.001-0.026-0.002-0.039-0.003-0.132-0.011-0.263-0.022-0.386-0.022zM29.415 4.726c0.339 0.026 0.689 0.038 1.044 0.038 1.388-0.005 2.769-0.182 4.114-0.528 1.378-0.346 2.706-0.865 3.956-1.543v14.875c-1.298 0.756-2.696 1.325-4.153 1.688-1.279 0.329-2.593 0.498-3.913 0.503-1 0.008-1.997-0.11-2.968-0.35v-14.971c0.229 0.053 0.465 0.102 0.706 0.142 0.394 0.066 0.81 0.115 1.214 0.145zM36.985 4.841l-0.54 0.182c-0.497 0.167-0.997 0.316-1.5 0.449-1.465 0.377-2.971 0.57-4.483 0.575-0.352 0-0.676-0.010-0.989-0.030l-0.43-0.028v12.148l0.37 0.033c0.343 0.030 0.696 0.045 1.052 0.045 1.191-0.005 2.377-0.159 3.531-0.457 0.95-0.238 1.874-0.57 2.759-0.991l0.231-0.111v-11.813z"></path>
<path d="M19.060 24.113c-0.078-0.080-0.171-0.144-0.274-0.186s-0.214-0.061-0.326-0.057c-0.119-0.002-0.237 0.021-0.347 0.065-0.101 0.040-0.193 0.101-0.27 0.178s-0.135 0.17-0.174 0.271c-0.042 0.107-0.063 0.22-0.062 0.335v2.023c-0.005 0.143 0.022 0.284 0.080 0.415 0.048 0.104 0.117 0.196 0.202 0.271 0.081 0.068 0.176 0.117 0.278 0.144 0.098 0.028 0.2 0.042 0.302 0.042 0.113 0.001 0.224-0.023 0.326-0.070 0.101-0.044 0.193-0.108 0.27-0.187 0.075-0.079 0.135-0.171 0.177-0.271 0.043-0.102 0.065-0.212 0.065-0.323v-0.226h-0.529v0.18c0.002 0.062-0.009 0.123-0.031 0.18-0.017 0.043-0.043 0.082-0.077 0.114-0.033 0.026-0.070 0.046-0.111 0.058-0.036 0.012-0.073 0.018-0.111 0.019-0.047 0.006-0.095-0.002-0.139-0.021s-0.081-0.049-0.11-0.088c-0.050-0.081-0.074-0.176-0.070-0.271v-1.887c-0.003-0.105 0.019-0.208 0.065-0.302 0.027-0.043 0.066-0.077 0.112-0.098s0.097-0.030 0.147-0.024c0.046-0.002 0.091 0.008 0.132 0.028s0.077 0.049 0.104 0.086c0.059 0.078 0.090 0.173 0.088 0.271v0.175h0.524v-0.206c0.001-0.121-0.021-0.241-0.065-0.354-0.039-0.106-0.099-0.203-0.177-0.285z"></path>
<path d="M22.202 24.090c-0.169-0.142-0.381-0.221-0.602-0.222-0.108 0-0.215 0.020-0.316 0.057-0.103 0.037-0.198 0.093-0.279 0.165-0.088 0.079-0.158 0.175-0.205 0.283-0.053 0.124-0.079 0.257-0.077 0.392v1.941c-0.004 0.137 0.023 0.272 0.077 0.397 0.048 0.104 0.118 0.197 0.205 0.271 0.081 0.075 0.176 0.133 0.279 0.171 0.101 0.037 0.208 0.056 0.316 0.057s0.215-0.020 0.316-0.057c0.105-0.038 0.202-0.096 0.286-0.171 0.084-0.076 0.152-0.168 0.2-0.271 0.054-0.125 0.081-0.261 0.077-0.397v-1.941c0.003-0.135-0.024-0.268-0.077-0.392-0.047-0.107-0.115-0.203-0.2-0.283zM21.955 26.706c0.004 0.052-0.003 0.104-0.021 0.152s-0.047 0.092-0.084 0.128c-0.070 0.059-0.158 0.091-0.249 0.091s-0.179-0.032-0.249-0.091c-0.037-0.036-0.066-0.080-0.084-0.128s-0.025-0.101-0.021-0.152v-1.941c-0.004-0.052 0.003-0.104 0.021-0.152s0.047-0.092 0.084-0.128c0.070-0.059 0.158-0.091 0.249-0.091s0.179 0.032 0.249 0.091c0.037 0.036 0.066 0.080 0.084 0.128s0.025 0.101 0.021 0.152v1.941z"></path>
<path d="M26.329 27.573v-3.674h-0.509l-0.668 1.945h-0.009l-0.673-1.945h-0.503v3.674h0.525v-2.235h0.009l0.514 1.58h0.262l0.518-1.58h0.009v2.235h0.525z"></path>
<path d="M29.311 24.157c-0.081-0.091-0.183-0.16-0.297-0.201-0.123-0.040-0.251-0.059-0.38-0.057h-0.78v3.674h0.523v-1.435h0.27c0.163 0.007 0.326-0.027 0.472-0.1 0.119-0.066 0.218-0.163 0.287-0.281 0.061-0.098 0.101-0.206 0.12-0.32 0.021-0.138 0.030-0.278 0.028-0.418 0.005-0.176-0.012-0.353-0.051-0.525-0.035-0.127-0.101-0.243-0.193-0.338zM29.041 25.277c-0.002 0.067-0.019 0.132-0.049 0.191-0.030 0.056-0.077 0.102-0.135 0.129-0.078 0.035-0.162 0.050-0.247 0.046h-0.239v-1.249h0.27c0.081-0.004 0.162 0.012 0.236 0.046 0.054 0.031 0.097 0.079 0.123 0.136 0.029 0.065 0.044 0.134 0.046 0.205 0 0.077 0 0.159 0 0.244s0.005 0.174 0 0.252h-0.005z"></path>
<path d="M31.791 23.899h-0.429l-0.809 3.674h0.523l0.154-0.789h0.714l0.154 0.789h0.524l-0.83-3.674zM31.308 26.283l0.258-1.332h0.009l0.256 1.332h-0.524z"></path>
<path d="M35.173 26.112h-0.009l-0.791-2.213h-0.503v3.674h0.523v-2.209h0.011l0.8 2.209h0.492v-3.674h-0.523v2.213z"></path>
<path d="M38.372 23.899l-0.421 1.461h-0.011l-0.421-1.461h-0.554l0.719 2.121v1.553h0.524v-1.553l0.719-2.121h-0.554z"></path>
<path d="M17.6 28.61h0.252v0.708h0.171v-0.708h0.251v-0.145h-0.675v0.145z"></path>
<path d="M19.721 28.465l-0.331 0.853h0.182l0.070-0.194h0.34l0.073 0.194h0.186l-0.339-0.853h-0.182zM19.694 28.981l0.116-0.316 0.116 0.316h-0.232z"></path>
<path d="M21.818 29.004h0.197v0.11c-0.058 0.046-0.129 0.071-0.202 0.072-0.034 0.002-0.069-0.004-0.1-0.019s-0.059-0.036-0.081-0.063c-0.045-0.065-0.068-0.143-0.063-0.222 0-0.19 0.082-0.285 0.246-0.285 0.043-0.004 0.086 0.007 0.121 0.032s0.061 0.062 0.072 0.104l0.169-0.033c-0.036-0.167-0.156-0.251-0.362-0.251-0.11-0.003-0.216 0.036-0.298 0.11-0.043 0.042-0.076 0.094-0.097 0.15s-0.030 0.117-0.025 0.178c-0.005 0.117 0.034 0.231 0.109 0.32 0.042 0.043 0.092 0.077 0.148 0.098s0.116 0.031 0.176 0.027c0.134 0.004 0.263-0.045 0.362-0.136v-0.336h-0.37v0.144z"></path>
<path d="M23.959 28.465h-0.173v0.853h0.598v-0.145h-0.425v-0.708z"></path>
<path d="M25.769 28.465h-0.173v0.853h0.173v-0.853z"></path>
<path d="M27.539 29.035l-0.349-0.57h-0.167v0.853h0.161v-0.557l0.343 0.557h0.171v-0.853h-0.158v0.57z"></path>
<path d="M29.14 28.943h0.425v-0.145h-0.425v-0.187h0.457v-0.145h-0.63v0.853h0.648v-0.145h-0.475v-0.231z"></path>
<path d="M33.020 28.802h-0.336v-0.336h-0.171v0.853h0.171v-0.373h0.336v0.373h0.171v-0.853h-0.171v0.336z"></path>
<path d="M34.629 28.943h0.426v-0.145h-0.426v-0.187h0.459v-0.145h-0.63v0.853h0.646v-0.145h-0.475v-0.231z"></path>
<path d="M36.812 28.943c0.148-0.023 0.224-0.102 0.224-0.237 0.004-0.036-0.001-0.073-0.016-0.106s-0.038-0.062-0.068-0.083c-0.077-0.039-0.163-0.056-0.25-0.050h-0.362v0.853h0.171v-0.357h0.034c0.037-0.002 0.073 0.004 0.107 0.019 0.025 0.015 0.046 0.037 0.061 0.062l0.186 0.271h0.205l-0.104-0.167c-0.046-0.082-0.111-0.153-0.189-0.205zM36.64 28.825h-0.127v-0.214h0.135c0.059-0.005 0.118 0.002 0.174 0.020 0.012 0.011 0.022 0.025 0.029 0.040s0.009 0.032 0.009 0.049c-0.001 0.017-0.005 0.033-0.013 0.048s-0.019 0.027-0.032 0.037c-0.056 0.017-0.115 0.024-0.174 0.020z"></path>
<path d="M38.458 28.943h0.425v-0.145h-0.425v-0.187h0.459v-0.145h-0.631v0.853h0.648v-0.145h-0.475v-0.231z"></path>
</symbol>
</defs>
</svg>
